<svg width="13" height="7" viewBox="0 0 13 7" fill="none" xmlns="http://www.w3.org/2000/svg">
<path fill-rule="evenodd" clip-rule="evenodd" d="M0.961054 0.410509C1.00154 0.372825 1.04964 0.342926 1.10259 0.322526C1.15554 0.302126 1.2123 0.291626 1.26963 0.291626C1.32696 0.291626 1.38373 0.302126 1.43668 0.322526C1.48963 0.342926 1.53773 0.372825 1.57821 0.410509L6.49979 4.98072L11.4214 0.410509C11.4619 0.372886 11.51 0.343041 11.5629 0.32268C11.6159 0.302318 11.6726 0.291838 11.7299 0.291838C11.7873 0.291838 11.844 0.302318 11.8969 0.32268C11.9499 0.343041 11.998 0.372886 12.0385 0.410509C12.079 0.448133 12.1112 0.492798 12.1331 0.541956C12.1551 0.591113 12.1663 0.6438 12.1663 0.697008C12.1663 0.750215 12.1551 0.802902 12.1331 0.85206C12.1112 0.901217 12.079 0.945883 12.0385 0.983506L6.80837 5.83941C6.76788 5.87709 6.71979 5.90699 6.66683 5.92739C6.61388 5.94779 6.55712 5.95829 6.49979 5.95829C6.44246 5.95829 6.38569 5.94779 6.33274 5.92739C6.27979 5.90699 6.2317 5.87709 6.19121 5.83941L0.961054 0.983506C0.920465 0.945917 0.888262 0.901262 0.86629 0.8521C0.844318 0.802938 0.833008 0.750234 0.833008 0.697008C0.833008 0.643781 0.844318 0.591077 0.86629 0.541915C0.888262 0.492753 0.920465 0.448099 0.961054 0.410509Z" fill="#D0D0D0"/>
<path fill-rule="evenodd" clip-rule="evenodd" d="M0.961054 0.410509C1.00154 0.372825 1.04964 0.342926 1.10259 0.322526C1.15554 0.302126 1.2123 0.291626 1.26963 0.291626C1.32696 0.291626 1.38373 0.302126 1.43668 0.322526C1.48963 0.342926 1.53773 0.372825 1.57821 0.410509L6.49979 4.98072L11.4214 0.410509C11.4619 0.372886 11.51 0.343041 11.5629 0.32268C11.6159 0.302318 11.6726 0.291838 11.7299 0.291838C11.7873 0.291838 11.844 0.302318 11.8969 0.32268C11.9499 0.343041 11.998 0.372886 12.0385 0.410509C12.079 0.448133 12.1112 0.492798 12.1331 0.541956C12.1551 0.591113 12.1663 0.6438 12.1663 0.697008C12.1663 0.750215 12.1551 0.802902 12.1331 0.85206C12.1112 0.901217 12.079 0.945883 12.0385 0.983506L6.80837 5.83941C6.76788 5.87709 6.71979 5.90699 6.66683 5.92739C6.61388 5.94779 6.55712 5.95829 6.49979 5.95829C6.44246 5.95829 6.38569 5.94779 6.33274 5.92739C6.27979 5.90699 6.2317 5.87709 6.19121 5.83941L0.961054 0.983506C0.920465 0.945917 0.888262 0.901262 0.86629 0.8521C0.844318 0.802938 0.833008 0.750234 0.833008 0.697008C0.833008 0.643781 0.844318 0.591077 0.86629 0.541915C0.888262 0.492753 0.920465 0.448099 0.961054 0.410509Z" fill="#D0D0D0"/>
<path fill-rule="evenodd" clip-rule="evenodd" d="M0.961054 0.410509C1.00154 0.372825 1.04964 0.342926 1.10259 0.322526C1.15554 0.302126 1.2123 0.291626 1.26963 0.291626C1.32696 0.291626 1.38373 0.302126 1.43668 0.322526C1.48963 0.342926 1.53773 0.372825 1.57821 0.410509L6.49979 4.98072L11.4214 0.410509C11.4619 0.372886 11.51 0.343041 11.5629 0.32268C11.6159 0.302318 11.6726 0.291838 11.7299 0.291838C11.7873 0.291838 11.844 0.302318 11.8969 0.32268C11.9499 0.343041 11.998 0.372886 12.0385 0.410509C12.079 0.448133 12.1112 0.492798 12.1331 0.541956C12.1551 0.591113 12.1663 0.6438 12.1663 0.697008C12.1663 0.750215 12.1551 0.802902 12.1331 0.85206C12.1112 0.901217 12.079 0.945883 12.0385 0.983506L6.80837 5.83941C6.76788 5.87709 6.71979 5.90699 6.66683 5.92739C6.61388 5.94779 6.55712 5.95829 6.49979 5.95829C6.44246 5.95829 6.38569 5.94779 6.33274 5.92739C6.27979 5.90699 6.2317 5.87709 6.19121 5.83941L0.961054 0.983506C0.920465 0.945917 0.888262 0.901262 0.86629 0.8521C0.844318 0.802938 0.833008 0.750234 0.833008 0.697008C0.833008 0.643781 0.844318 0.591077 0.86629 0.541915C0.888262 0.492753 0.920465 0.448099 0.961054 0.410509Z" stroke="#D0D0D0" stroke-width="0.5"/>
<path fill-rule="evenodd" clip-rule="evenodd" d="M0.961054 0.410509C1.00154 0.372825 1.04964 0.342926 1.10259 0.322526C1.15554 0.302126 1.2123 0.291626 1.26963 0.291626C1.32696 0.291626 1.38373 0.302126 1.43668 0.322526C1.48963 0.342926 1.53773 0.372825 1.57821 0.410509L6.49979 4.98072L11.4214 0.410509C11.4619 0.372886 11.51 0.343041 11.5629 0.32268C11.6159 0.302318 11.6726 0.291838 11.7299 0.291838C11.7873 0.291838 11.844 0.302318 11.8969 0.32268C11.9499 0.343041 11.998 0.372886 12.0385 0.410509C12.079 0.448133 12.1112 0.492798 12.1331 0.541956C12.1551 0.591113 12.1663 0.6438 12.1663 0.697008C12.1663 0.750215 12.1551 0.802902 12.1331 0.85206C12.1112 0.901217 12.079 0.945883 12.0385 0.983506L6.80837 5.83941C6.76788 5.87709 6.71979 5.90699 6.66683 5.92739C6.61388 5.94779 6.55712 5.95829 6.49979 5.95829C6.44246 5.95829 6.38569 5.94779 6.33274 5.92739C6.27979 5.90699 6.2317 5.87709 6.19121 5.83941L0.961054 0.983506C0.920465 0.945917 0.888262 0.901262 0.86629 0.8521C0.844318 0.802938 0.833008 0.750234 0.833008 0.697008C0.833008 0.643781 0.844318 0.591077 0.86629 0.541915C0.888262 0.492753 0.920465 0.448099 0.961054 0.410509Z" stroke="#D0D0D0" stroke-width="0.5"/>
</svg>
