<svg width="104" height="34" viewBox="0 0 104 34" fill="none" xmlns="http://www.w3.org/2000/svg">
<g clip-path="url(#clip0_1526_2774)">
<g filter="url(#filter0_d_1526_2774)">
<mask id="path-1-inside-1_1526_2774" fill="white">
<path fill-rule="evenodd" clip-rule="evenodd" d="M41.5999 0.635157C42.5851 1.04614 43.2785 1.83076 43.6799 2.72746C44.0813 3.5868 44.2637 4.55823 44.2637 5.52965C44.2637 7.17361 43.6434 8.7802 42.3662 9.75163C41.8188 10.1626 41.1985 10.4615 40.5051 10.6483C39.8118 10.7978 39.009 10.9099 38.2792 10.9099H37.9872H37.5129C37.4399 10.9099 37.3578 10.9005 37.2757 10.8912C37.1936 10.8818 37.1115 10.8725 37.0385 10.8725H36.929V14.534H33.6813V0.373626L33.8272 0.336261C34.4111 0.224173 35.068 0.149443 35.7613 0.0747183C36.4546 0.0373557 37.3304 0 38.0237 0C38.3886 0 38.79 0.0373557 39.1915 0.0747183C39.6293 0.112081 40.0672 0.186806 40.4686 0.261531C40.87 0.373619 41.235 0.485706 41.5999 0.635157ZM37.6223 7.95822C38.0237 7.99558 38.4981 7.99558 38.8995 7.92085C39.4104 7.84613 40.9795 7.5846 40.9795 5.60438C40.9795 3.5329 39.6906 3.24304 39.2929 3.15361C39.2674 3.14787 39.2455 3.14296 39.2279 3.13845C38.936 3.06373 38.6076 3.02637 38.2427 3.02637C38.0862 3.02637 37.9298 3.0371 37.7846 3.04705C37.6588 3.05568 37.5415 3.06372 37.4399 3.06372C37.2939 3.06372 36.9655 3.10109 36.9655 3.10109V7.92085C36.9655 7.92085 37.5129 7.95822 37.6223 7.95822ZM0 29.1801V0.149414H25.2519V29.1801L12.6259 33.9252L0 29.1801ZM20.1796 9.11643C19.8512 9.00434 19.4863 8.89225 19.0849 8.78016C17.4063 8.36918 15.8007 8.33181 14.487 8.66807C14.9979 9.0417 15.5452 9.6395 15.9831 10.4241C17.1509 10.312 18.428 10.4988 19.7052 11.0219C19.8224 11.0733 19.9319 11.1247 20.0337 11.1725C20.1538 11.229 20.2633 11.2804 20.3621 11.3208L21.1284 9.56478L21.0554 9.52742C20.8 9.37797 20.508 9.22851 20.1796 9.11643ZM7.0428 10.4241H7.15227C7.27318 10.4241 7.41912 10.3985 7.59009 10.3684L7.59012 10.3684C7.62555 10.3622 7.66206 10.3558 7.69964 10.3494C8.24701 10.2747 8.94034 10.1999 8.97683 10.1999H9.63367H9.96209C10.6189 10.1999 11.2393 10.4241 11.4947 10.5362C11.8961 10.6856 12.261 10.9098 12.553 11.2087C12.8449 11.4703 13.0638 11.8065 13.2098 12.2175C13.3558 12.5911 13.4288 13.0395 13.4288 13.4878C13.4288 14.0109 13.3558 14.4966 13.1733 14.945C12.9909 15.356 12.7719 15.767 12.4435 16.0659L12.334 16.1779L12.3357 16.1863C12.3757 16.3921 12.5617 17.3467 13.1733 18.0834L13.1734 18.0834C13.3923 17.934 13.6112 17.7845 13.8302 17.5977C14.3775 17.1494 14.7789 16.5516 15.1073 15.879C15.4358 15.2065 15.5817 14.3846 15.5817 13.4878C15.5817 12.7032 15.4358 11.956 15.1803 11.3208C14.9249 10.6857 14.5235 10.1252 14.0491 9.71423C13.5747 9.30324 12.9909 8.96698 12.2975 8.7428C11.7137 8.55599 10.6919 8.33181 9.81612 8.33181C8.42946 8.33181 7.15227 8.4439 6.60491 8.55599H6.42245C6.13052 8.55599 5.36421 8.63072 4.78035 8.78016L4.67087 8.81753V22.156H6.78736V18.4571C7.15227 18.5692 7.8821 18.756 8.86736 18.9054C8.48625 18.0186 8.3354 17.2328 8.28989 16.9957L8.2835 16.9626C7.81018 16.8818 7.41266 16.7816 7.10459 16.704C6.98513 16.6739 6.87913 16.6472 6.78736 16.6263V10.4615C6.82385 10.4615 6.86947 10.4521 6.91508 10.4428C6.96069 10.4335 7.00631 10.4241 7.0428 10.4241ZM21.2014 21.1472L21.2379 21.1098H21.2744V15.2439H17.2238L16.421 16.9999L19.3768 16.9626V19.8768L19.3038 19.9516C19.2795 19.964 19.2592 19.9765 19.239 19.9889L19.239 19.9889C19.1984 20.0138 19.1579 20.0387 19.0849 20.0636C18.9024 20.1384 18.647 20.2131 18.3916 20.2878C18.1361 20.3626 17.8807 20.3999 17.5887 20.4373C15.9102 20.6614 13.6477 20.3252 12.407 18.6439C11.2758 17.1494 11.0568 14.7582 11.8596 13.1142C11.9691 12.8527 12.1151 12.6285 12.2975 12.4043C11.8231 11.545 10.9474 11.3955 10.6189 11.3582C9.77964 12.5538 9.26876 14.0109 9.26876 15.4307C9.26876 18.4197 10.7284 20.8109 13.1733 21.8944C14.0856 22.3054 15.1803 22.4922 16.3116 22.4922C17.2603 22.4922 18.2456 22.3801 19.2308 22.0812C19.6323 21.9691 20.0337 21.8197 20.3621 21.6702C20.4198 21.6374 20.4763 21.6058 20.5316 21.5749L20.5338 21.5736L20.5339 21.5736C20.7922 21.429 21.0214 21.3007 21.2014 21.1472ZM40.9797 25.8175L39.812 28.4703H43.0232V30.5252C42.8773 30.5999 42.7313 30.6746 42.5489 30.712C42.3569 30.7775 42.1368 30.8143 41.9379 30.8476L41.9378 30.8476L41.8555 30.8615C41.6366 30.8988 41.3811 30.9362 41.1622 30.9362C41.0417 30.9362 40.9211 30.9475 40.8128 30.9577C40.7243 30.966 40.644 30.9736 40.5783 30.9736C39.9945 30.9736 39.4471 30.9362 38.9362 30.8241C38.4619 30.712 38.024 30.5626 37.659 30.301C37.1117 29.9648 36.6738 29.479 36.3454 28.8439C36.0169 28.2087 35.871 27.4615 35.871 26.5648C35.871 25.8175 35.9805 25.145 36.1994 24.5472C36.4184 23.9868 36.7468 23.501 37.1482 23.1274C37.3671 22.9406 37.5861 22.7538 37.878 22.6043C38.1334 22.4549 38.4254 22.3428 38.7173 22.2681C39.0092 22.1934 39.3376 22.1186 39.6296 22.0813C40.5783 21.9692 41.5636 22.0439 42.5124 22.3054C43.1692 22.4922 43.7531 22.7164 44.3369 22.978L44.5194 23.0527L45.4682 20.1384L45.3222 20.0637C44.5559 19.6901 43.7531 19.4659 42.8773 19.2791C42.0015 19.1296 41.1257 19.0549 40.2864 19.0549C39.812 19.0549 39.3012 19.0923 38.7538 19.167C38.2429 19.2417 37.6955 19.3538 37.1847 19.5406C36.6738 19.7274 36.1629 19.9516 35.6885 20.2505C35.2141 20.5494 34.7762 20.923 34.3748 21.3714C34.1194 21.6702 33.864 22.0065 33.6086 22.3427L33.6085 22.3428L33.6085 22.3429C33.3895 22.7165 33.1706 23.0901 32.9882 23.5384C32.8057 23.9494 32.6962 24.4351 32.5868 24.9208C32.4773 25.4065 32.4408 25.9296 32.4408 26.49C32.4408 27.6483 32.6233 28.6944 32.9517 29.5911C33.2801 30.4878 33.791 31.2725 34.4843 31.945C34.8857 32.3186 35.2871 32.6549 35.7615 32.9164C36.2359 33.1779 36.7103 33.4021 37.2211 33.5516C37.732 33.701 38.2429 33.8131 38.7538 33.8878C39.2647 33.9626 39.812 33.9999 40.2864 33.9999C40.6513 33.9999 41.0162 33.9999 41.4541 33.9626C41.8331 33.9302 42.212 33.8699 42.6145 33.8058L42.6147 33.8058L42.8043 33.7757L42.8043 33.7757C43.2787 33.6636 43.7531 33.5516 44.2275 33.3648L44.2937 33.3387C44.7554 33.1571 45.3076 32.94 45.7601 32.6549L45.8331 32.6175V25.9296H40.9797V25.8175ZM98.2708 19.4659C98.6722 19.5779 99.0371 19.69 99.402 19.8395C100.424 20.2505 101.081 20.9977 101.482 21.8944C101.883 22.7164 102.066 23.7252 102.066 24.6966C102.066 26.3406 101.446 27.9472 100.168 28.9186C99.621 29.3296 99.0006 29.6285 98.3073 29.8153C97.614 29.9647 96.8112 30.0768 96.0813 30.0768H95.7894H95.315C95.242 30.0768 95.1599 30.0675 95.0778 30.0581C94.9957 30.0488 94.9136 30.0395 94.8406 30.0395H94.7312V33.701H91.4835V19.5779L91.6294 19.5406C92.2133 19.4285 92.8701 19.3538 93.5634 19.279C94.2568 19.2417 95.1326 19.2043 95.8259 19.2043C96.1908 19.2043 96.5921 19.2417 96.9935 19.279L96.9936 19.279C97.4315 19.3164 97.8694 19.3911 98.2708 19.4659ZM95.4245 27.1625C95.8259 27.1999 96.3003 27.1999 96.7017 27.1252C96.7268 27.1197 96.7546 27.1139 96.7845 27.1076L96.7853 27.1075C97.3645 26.9865 98.7817 26.6906 98.7817 24.8087C98.7817 22.7372 97.4927 22.4474 97.0951 22.3579C97.0695 22.3522 97.0477 22.3473 97.0301 22.3428C96.7382 22.268 96.4098 22.2307 96.0448 22.2307C95.8884 22.2307 95.732 22.2414 95.5868 22.2514L95.5867 22.2514C95.4609 22.26 95.3436 22.268 95.242 22.268C95.0961 22.268 94.7677 22.3054 94.7677 22.3054V27.1252C94.7677 27.1252 95.315 27.1625 95.4245 27.1625ZM52.146 14.8329C53.2407 14.8329 54.226 14.6461 55.1017 14.3099C55.9775 13.9362 56.7074 13.4505 57.3277 12.778C57.9481 12.1428 58.386 11.3209 58.7144 10.4241C59.0428 9.52745 59.1888 8.51866 59.1888 7.39778C59.1888 6.31427 59.0428 5.30548 58.7144 4.40878C58.386 3.51208 57.9481 2.72747 57.3277 2.05494C56.7074 1.41978 55.9775 0.896699 55.1017 0.523073C54.226 0.149448 53.2407 0 52.146 0C51.0877 0 50.139 0.186808 49.2997 0.485709C48.4604 0.821972 47.694 1.30768 47.0737 1.94285C46.4533 2.57801 45.979 3.36263 45.6505 4.29669C45.3221 5.23076 45.1397 6.27691 45.1397 7.43515C45.1397 8.59338 45.3221 9.63953 45.6505 10.5736C45.979 11.5077 46.4533 12.2923 47.0737 12.9274C47.694 13.5626 48.4239 14.0483 49.2997 14.3846C50.139 14.6461 51.1242 14.8329 52.146 14.8329ZM48.5698 7.36042C48.5698 6.5758 48.6428 5.90328 48.8253 5.34284C49.0077 4.7824 49.2267 4.33406 49.5551 3.96043C49.8835 3.58681 50.2484 3.32527 50.6863 3.17582C51.1242 2.989 51.6351 2.91427 52.1825 2.91427C52.8028 2.91427 53.3502 3.02636 53.7881 3.25054C54.226 3.47471 54.6274 3.77361 54.9193 4.1846C55.2112 4.55822 55.4302 5.04394 55.5761 5.60438C55.7221 6.16482 55.7951 6.76262 55.7951 7.39778C55.7951 8.03294 55.7221 8.63075 55.5761 9.19119C55.4302 9.75163 55.2112 10.2 54.9193 10.611C54.6274 10.9846 54.2624 11.3209 53.7881 11.545C53.3502 11.7692 52.8028 11.8813 52.1825 11.8813C51.6351 11.8813 51.1242 11.8066 50.6863 11.6198C50.2484 11.4329 49.8835 11.1714 49.5551 10.8351C49.2267 10.4615 49.0077 10.0132 48.8253 9.45272C48.6428 8.81756 48.5698 8.14503 48.5698 7.36042ZM64.4799 11.545H68.6398L67.3627 14.534H61.2321V0.149414H64.4799V11.545ZM71.8876 14.534L73.1283 11.5824H78.529L79.7697 14.534H83.2364L77.1059 0.149414H74.7339L68.6034 14.534H71.8876ZM75.8287 4.81973L76.3031 6.2395L77.3978 8.89225H74.2596L75.3543 6.27687L75.8287 4.81973ZM84.7689 0.149414H88.0167V14.534H84.7689V0.149414ZM94.4393 8.92968L96.0084 9.11649L99.986 14.5341H104L99.6211 8.92968L99.1467 8.44397C99.1814 8.43065 99.2166 8.41732 99.2521 8.40387C99.5156 8.30418 99.7974 8.19759 100.022 8.03298C100.387 7.80881 100.716 7.5099 101.008 7.17364C101.3 6.83737 101.519 6.42639 101.665 5.94068C101.811 5.45496 101.92 4.93189 101.92 4.33409C101.92 3.54948 101.774 2.87694 101.446 2.31651C101.117 1.75607 100.716 1.30773 100.168 0.971463C99.8765 0.78465 99.5846 0.635195 99.2561 0.523108C98.9277 0.41102 98.5628 0.298937 98.1979 0.224212C97.833 0.149487 97.4681 0.112115 97.0667 0.0747525C96.7019 0.037399 96.337 0.037399 95.9722 0.037399H95.9719H95.9717C95.6798 0.037399 95.315 0.037399 94.9137 0.0747525C94.5434 0.0747525 94.1731 0.106553 93.7742 0.140813L93.673 0.149482C93.2351 0.186845 92.8337 0.224203 92.4323 0.261565C92.0309 0.298928 91.666 0.336299 91.3376 0.411025L91.1916 0.448378V14.5341H94.4393V8.92968ZM97.7965 6.42639C97.5411 6.57584 97.2491 6.68793 96.8842 6.72529C96.5193 6.80001 96.1545 6.80001 95.8261 6.80001H95.826H94.4393V3.3253H94.6218C94.7677 3.3253 94.9137 3.3253 95.0597 3.28793H95.5705C96.1179 3.28793 96.6288 3.28794 97.0667 3.36266C97.3586 3.40003 97.6505 3.51211 97.8695 3.66156C98.0884 3.81101 98.2344 3.96046 98.3804 4.222C98.4898 4.44617 98.5628 4.70771 98.5628 4.93188C98.5628 5.34287 98.4898 5.64177 98.3804 5.90331C98.1979 6.09013 98.0154 6.27694 97.7965 6.42639ZM56.5206 27.5709C56.4851 27.5843 56.4499 27.5976 56.4153 27.6109L56.8897 28.134L61.2686 33.7383H57.2546L53.2771 28.3208L51.7079 28.134V33.7383H48.4602V19.6153L48.6062 19.5779C48.9346 19.5032 49.2995 19.4659 49.7009 19.4285L49.7031 19.4283C50.1038 19.391 50.5045 19.3537 50.9416 19.3164L51.0424 19.3078L51.0425 19.3078C51.4416 19.2735 51.8119 19.2417 52.1823 19.2417C52.5837 19.2043 52.9486 19.2043 53.2406 19.2043C53.6055 19.2043 53.9704 19.2043 54.3353 19.2417C54.7367 19.279 55.1016 19.3164 55.4665 19.3911C55.8314 19.4659 56.1963 19.5779 56.5248 19.69C56.8532 19.8021 57.1451 19.9516 57.437 20.1384C57.9844 20.4746 58.3858 20.923 58.7142 21.4834C59.0427 22.0439 59.1886 22.7164 59.1886 23.501C59.1886 24.0988 59.0792 24.6219 58.9332 25.1076C58.7872 25.5933 58.5683 26.0043 58.2763 26.3406C57.9844 26.6768 57.656 26.9757 57.2911 27.1999C57.066 27.3645 56.7843 27.4711 56.5207 27.5708L56.5206 27.5709ZM55.576 24.7713C55.6855 24.5098 55.7584 24.2109 55.7584 23.7999C55.7584 23.5384 55.6855 23.3142 55.6125 23.1274C55.4665 22.8658 55.3206 22.7164 55.1016 22.5669C54.8827 22.4175 54.5907 22.3054 54.2988 22.268C53.8609 22.1933 53.35 22.1933 52.8027 22.1933H52.2918C52.1458 22.2307 51.9999 22.2307 51.8539 22.2307H51.6714V25.7054H53.0581H53.0582C53.3866 25.7054 53.7515 25.7054 54.1163 25.6307C54.4813 25.5933 54.7732 25.4812 55.0286 25.3318C55.2476 25.1823 55.43 24.9955 55.576 24.7713ZM73.0553 21.1846C72.4349 20.5495 71.7051 20.0264 70.8293 19.6528C69.9535 19.2792 68.9683 19.1297 67.8735 19.1297C66.8153 19.1297 65.8665 19.3165 65.0272 19.6154C64.1879 19.9517 63.4216 20.4374 62.8013 21.0726C62.1809 21.7077 61.7065 22.4923 61.3781 23.4264C61.0497 24.3605 60.8672 25.4066 60.8672 26.5649C60.8672 27.7231 61.0497 28.7692 61.3781 29.7033C61.7065 30.6374 62.1809 31.422 62.8013 32.0571C63.4216 32.6923 64.1514 33.178 65.0272 33.5143C65.8665 33.8505 66.8518 34 67.8735 34C68.9683 34 69.9535 33.8132 70.8293 33.4769C71.7051 33.1033 72.4349 32.6176 73.0553 31.9451C73.6756 31.2725 74.1135 30.4879 74.4419 29.5912C74.7704 28.6945 74.9163 27.6857 74.9163 26.5649C74.9163 25.4813 74.7704 24.4726 74.4419 23.5758C74.1135 22.6418 73.6756 21.8198 73.0553 21.1846ZM71.4861 26.5275C71.4861 27.1627 71.4132 27.7604 71.2672 28.3209C71.1212 28.8813 70.9023 29.3297 70.6104 29.7407C70.3184 30.1143 69.9535 30.4506 69.4791 30.6747C69.0412 30.8989 68.4939 31.011 67.8735 31.011C67.3262 31.011 66.8153 30.9363 66.3774 30.7495C65.9395 30.5626 65.5746 30.3011 65.2462 29.9648C64.9177 29.5912 64.6988 29.1429 64.5163 28.5824C64.3339 28.022 64.2609 27.3495 64.2609 26.5649C64.2609 25.7802 64.3339 25.1077 64.5163 24.5473C64.6988 23.9868 64.9177 23.5385 65.2462 23.1649C65.5381 22.7912 65.9395 22.5297 66.3774 22.3802C66.8153 22.1934 67.3262 22.1187 67.8735 22.1187C68.4939 22.1187 69.0412 22.2308 69.4791 22.455C69.917 22.6791 70.3184 22.9781 70.6104 23.389C70.9023 23.7627 71.1212 24.2484 71.2672 24.8088C71.4132 25.2945 71.4861 25.8923 71.4861 26.5275ZM85.3895 29.5537C85.499 29.2175 85.572 28.8065 85.572 28.3208V19.3911H88.6737V28.4702C88.6737 29.4043 88.5277 30.2263 88.2358 30.8988C87.9804 31.6087 87.579 32.1691 87.0681 32.6175C86.5572 33.0658 85.9734 33.4021 85.28 33.6263C84.5867 33.8131 83.8569 33.9252 83.0906 33.9252C82.1783 33.9252 81.339 33.8504 80.6091 33.6263C79.8428 33.4021 79.2225 33.0658 78.7116 32.6548C78.2007 32.2438 77.7993 31.6834 77.5439 31.0482C77.2885 30.4131 77.1425 29.6658 77.1425 28.8438V19.3911H80.3902V28.3208C80.3902 29.2175 80.6092 29.9274 81.0106 30.3383C81.412 30.7493 82.1053 30.9735 83.0541 30.9735C83.4555 30.9735 83.8204 30.9362 84.1488 30.8241C84.4407 30.7493 84.6962 30.5999 84.9151 30.3757C85.1341 30.1515 85.28 29.89 85.3895 29.5537Z"/>
</mask>
<path fill-rule="evenodd" clip-rule="evenodd" d="M41.5999 0.635157C42.5851 1.04614 43.2785 1.83076 43.6799 2.72746C44.0813 3.5868 44.2637 4.55823 44.2637 5.52965C44.2637 7.17361 43.6434 8.7802 42.3662 9.75163C41.8188 10.1626 41.1985 10.4615 40.5051 10.6483C39.8118 10.7978 39.009 10.9099 38.2792 10.9099H37.9872H37.5129C37.4399 10.9099 37.3578 10.9005 37.2757 10.8912C37.1936 10.8818 37.1115 10.8725 37.0385 10.8725H36.929V14.534H33.6813V0.373626L33.8272 0.336261C34.4111 0.224173 35.068 0.149443 35.7613 0.0747183C36.4546 0.0373557 37.3304 0 38.0237 0C38.3886 0 38.79 0.0373557 39.1915 0.0747183C39.6293 0.112081 40.0672 0.186806 40.4686 0.261531C40.87 0.373619 41.235 0.485706 41.5999 0.635157ZM37.6223 7.95822C38.0237 7.99558 38.4981 7.99558 38.8995 7.92085C39.4104 7.84613 40.9795 7.5846 40.9795 5.60438C40.9795 3.5329 39.6906 3.24304 39.2929 3.15361C39.2674 3.14787 39.2455 3.14296 39.2279 3.13845C38.936 3.06373 38.6076 3.02637 38.2427 3.02637C38.0862 3.02637 37.9298 3.0371 37.7846 3.04705C37.6588 3.05568 37.5415 3.06372 37.4399 3.06372C37.2939 3.06372 36.9655 3.10109 36.9655 3.10109V7.92085C36.9655 7.92085 37.5129 7.95822 37.6223 7.95822ZM0 29.1801V0.149414H25.2519V29.1801L12.6259 33.9252L0 29.1801ZM20.1796 9.11643C19.8512 9.00434 19.4863 8.89225 19.0849 8.78016C17.4063 8.36918 15.8007 8.33181 14.487 8.66807C14.9979 9.0417 15.5452 9.6395 15.9831 10.4241C17.1509 10.312 18.428 10.4988 19.7052 11.0219C19.8224 11.0733 19.9319 11.1247 20.0337 11.1725C20.1538 11.229 20.2633 11.2804 20.3621 11.3208L21.1284 9.56478L21.0554 9.52742C20.8 9.37797 20.508 9.22851 20.1796 9.11643ZM7.0428 10.4241H7.15227C7.27318 10.4241 7.41912 10.3985 7.59009 10.3684L7.59012 10.3684C7.62555 10.3622 7.66206 10.3558 7.69964 10.3494C8.24701 10.2747 8.94034 10.1999 8.97683 10.1999H9.63367H9.96209C10.6189 10.1999 11.2393 10.4241 11.4947 10.5362C11.8961 10.6856 12.261 10.9098 12.553 11.2087C12.8449 11.4703 13.0638 11.8065 13.2098 12.2175C13.3558 12.5911 13.4288 13.0395 13.4288 13.4878C13.4288 14.0109 13.3558 14.4966 13.1733 14.945C12.9909 15.356 12.7719 15.767 12.4435 16.0659L12.334 16.1779L12.3357 16.1863C12.3757 16.3921 12.5617 17.3467 13.1733 18.0834L13.1734 18.0834C13.3923 17.934 13.6112 17.7845 13.8302 17.5977C14.3775 17.1494 14.7789 16.5516 15.1073 15.879C15.4358 15.2065 15.5817 14.3846 15.5817 13.4878C15.5817 12.7032 15.4358 11.956 15.1803 11.3208C14.9249 10.6857 14.5235 10.1252 14.0491 9.71423C13.5747 9.30324 12.9909 8.96698 12.2975 8.7428C11.7137 8.55599 10.6919 8.33181 9.81612 8.33181C8.42946 8.33181 7.15227 8.4439 6.60491 8.55599H6.42245C6.13052 8.55599 5.36421 8.63072 4.78035 8.78016L4.67087 8.81753V22.156H6.78736V18.4571C7.15227 18.5692 7.8821 18.756 8.86736 18.9054C8.48625 18.0186 8.3354 17.2328 8.28989 16.9957L8.2835 16.9626C7.81018 16.8818 7.41266 16.7816 7.10459 16.704C6.98513 16.6739 6.87913 16.6472 6.78736 16.6263V10.4615C6.82385 10.4615 6.86947 10.4521 6.91508 10.4428C6.96069 10.4335 7.00631 10.4241 7.0428 10.4241ZM21.2014 21.1472L21.2379 21.1098H21.2744V15.2439H17.2238L16.421 16.9999L19.3768 16.9626V19.8768L19.3038 19.9516C19.2795 19.964 19.2592 19.9765 19.239 19.9889L19.239 19.9889C19.1984 20.0138 19.1579 20.0387 19.0849 20.0636C18.9024 20.1384 18.647 20.2131 18.3916 20.2878C18.1361 20.3626 17.8807 20.3999 17.5887 20.4373C15.9102 20.6614 13.6477 20.3252 12.407 18.6439C11.2758 17.1494 11.0568 14.7582 11.8596 13.1142C11.9691 12.8527 12.1151 12.6285 12.2975 12.4043C11.8231 11.545 10.9474 11.3955 10.6189 11.3582C9.77964 12.5538 9.26876 14.0109 9.26876 15.4307C9.26876 18.4197 10.7284 20.8109 13.1733 21.8944C14.0856 22.3054 15.1803 22.4922 16.3116 22.4922C17.2603 22.4922 18.2456 22.3801 19.2308 22.0812C19.6323 21.9691 20.0337 21.8197 20.3621 21.6702C20.4198 21.6374 20.4763 21.6058 20.5316 21.5749L20.5338 21.5736L20.5339 21.5736C20.7922 21.429 21.0214 21.3007 21.2014 21.1472ZM40.9797 25.8175L39.812 28.4703H43.0232V30.5252C42.8773 30.5999 42.7313 30.6746 42.5489 30.712C42.3569 30.7775 42.1368 30.8143 41.9379 30.8476L41.9378 30.8476L41.8555 30.8615C41.6366 30.8988 41.3811 30.9362 41.1622 30.9362C41.0417 30.9362 40.9211 30.9475 40.8128 30.9577C40.7243 30.966 40.644 30.9736 40.5783 30.9736C39.9945 30.9736 39.4471 30.9362 38.9362 30.8241C38.4619 30.712 38.024 30.5626 37.659 30.301C37.1117 29.9648 36.6738 29.479 36.3454 28.8439C36.0169 28.2087 35.871 27.4615 35.871 26.5648C35.871 25.8175 35.9805 25.145 36.1994 24.5472C36.4184 23.9868 36.7468 23.501 37.1482 23.1274C37.3671 22.9406 37.5861 22.7538 37.878 22.6043C38.1334 22.4549 38.4254 22.3428 38.7173 22.2681C39.0092 22.1934 39.3376 22.1186 39.6296 22.0813C40.5783 21.9692 41.5636 22.0439 42.5124 22.3054C43.1692 22.4922 43.7531 22.7164 44.3369 22.978L44.5194 23.0527L45.4682 20.1384L45.3222 20.0637C44.5559 19.6901 43.7531 19.4659 42.8773 19.2791C42.0015 19.1296 41.1257 19.0549 40.2864 19.0549C39.812 19.0549 39.3012 19.0923 38.7538 19.167C38.2429 19.2417 37.6955 19.3538 37.1847 19.5406C36.6738 19.7274 36.1629 19.9516 35.6885 20.2505C35.2141 20.5494 34.7762 20.923 34.3748 21.3714C34.1194 21.6702 33.864 22.0065 33.6086 22.3427L33.6085 22.3428L33.6085 22.3429C33.3895 22.7165 33.1706 23.0901 32.9882 23.5384C32.8057 23.9494 32.6962 24.4351 32.5868 24.9208C32.4773 25.4065 32.4408 25.9296 32.4408 26.49C32.4408 27.6483 32.6233 28.6944 32.9517 29.5911C33.2801 30.4878 33.791 31.2725 34.4843 31.945C34.8857 32.3186 35.2871 32.6549 35.7615 32.9164C36.2359 33.1779 36.7103 33.4021 37.2211 33.5516C37.732 33.701 38.2429 33.8131 38.7538 33.8878C39.2647 33.9626 39.812 33.9999 40.2864 33.9999C40.6513 33.9999 41.0162 33.9999 41.4541 33.9626C41.8331 33.9302 42.212 33.8699 42.6145 33.8058L42.6147 33.8058L42.8043 33.7757L42.8043 33.7757C43.2787 33.6636 43.7531 33.5516 44.2275 33.3648L44.2937 33.3387C44.7554 33.1571 45.3076 32.94 45.7601 32.6549L45.8331 32.6175V25.9296H40.9797V25.8175ZM98.2708 19.4659C98.6722 19.5779 99.0371 19.69 99.402 19.8395C100.424 20.2505 101.081 20.9977 101.482 21.8944C101.883 22.7164 102.066 23.7252 102.066 24.6966C102.066 26.3406 101.446 27.9472 100.168 28.9186C99.621 29.3296 99.0006 29.6285 98.3073 29.8153C97.614 29.9647 96.8112 30.0768 96.0813 30.0768H95.7894H95.315C95.242 30.0768 95.1599 30.0675 95.0778 30.0581C94.9957 30.0488 94.9136 30.0395 94.8406 30.0395H94.7312V33.701H91.4835V19.5779L91.6294 19.5406C92.2133 19.4285 92.8701 19.3538 93.5634 19.279C94.2568 19.2417 95.1326 19.2043 95.8259 19.2043C96.1908 19.2043 96.5921 19.2417 96.9935 19.279L96.9936 19.279C97.4315 19.3164 97.8694 19.3911 98.2708 19.4659ZM95.4245 27.1625C95.8259 27.1999 96.3003 27.1999 96.7017 27.1252C96.7268 27.1197 96.7546 27.1139 96.7845 27.1076L96.7853 27.1075C97.3645 26.9865 98.7817 26.6906 98.7817 24.8087C98.7817 22.7372 97.4927 22.4474 97.0951 22.3579C97.0695 22.3522 97.0477 22.3473 97.0301 22.3428C96.7382 22.268 96.4098 22.2307 96.0448 22.2307C95.8884 22.2307 95.732 22.2414 95.5868 22.2514L95.5867 22.2514C95.4609 22.26 95.3436 22.268 95.242 22.268C95.0961 22.268 94.7677 22.3054 94.7677 22.3054V27.1252C94.7677 27.1252 95.315 27.1625 95.4245 27.1625ZM52.146 14.8329C53.2407 14.8329 54.226 14.6461 55.1017 14.3099C55.9775 13.9362 56.7074 13.4505 57.3277 12.778C57.9481 12.1428 58.386 11.3209 58.7144 10.4241C59.0428 9.52745 59.1888 8.51866 59.1888 7.39778C59.1888 6.31427 59.0428 5.30548 58.7144 4.40878C58.386 3.51208 57.9481 2.72747 57.3277 2.05494C56.7074 1.41978 55.9775 0.896699 55.1017 0.523073C54.226 0.149448 53.2407 0 52.146 0C51.0877 0 50.139 0.186808 49.2997 0.485709C48.4604 0.821972 47.694 1.30768 47.0737 1.94285C46.4533 2.57801 45.979 3.36263 45.6505 4.29669C45.3221 5.23076 45.1397 6.27691 45.1397 7.43515C45.1397 8.59338 45.3221 9.63953 45.6505 10.5736C45.979 11.5077 46.4533 12.2923 47.0737 12.9274C47.694 13.5626 48.4239 14.0483 49.2997 14.3846C50.139 14.6461 51.1242 14.8329 52.146 14.8329ZM48.5698 7.36042C48.5698 6.5758 48.6428 5.90328 48.8253 5.34284C49.0077 4.7824 49.2267 4.33406 49.5551 3.96043C49.8835 3.58681 50.2484 3.32527 50.6863 3.17582C51.1242 2.989 51.6351 2.91427 52.1825 2.91427C52.8028 2.91427 53.3502 3.02636 53.7881 3.25054C54.226 3.47471 54.6274 3.77361 54.9193 4.1846C55.2112 4.55822 55.4302 5.04394 55.5761 5.60438C55.7221 6.16482 55.7951 6.76262 55.7951 7.39778C55.7951 8.03294 55.7221 8.63075 55.5761 9.19119C55.4302 9.75163 55.2112 10.2 54.9193 10.611C54.6274 10.9846 54.2624 11.3209 53.7881 11.545C53.3502 11.7692 52.8028 11.8813 52.1825 11.8813C51.6351 11.8813 51.1242 11.8066 50.6863 11.6198C50.2484 11.4329 49.8835 11.1714 49.5551 10.8351C49.2267 10.4615 49.0077 10.0132 48.8253 9.45272C48.6428 8.81756 48.5698 8.14503 48.5698 7.36042ZM64.4799 11.545H68.6398L67.3627 14.534H61.2321V0.149414H64.4799V11.545ZM71.8876 14.534L73.1283 11.5824H78.529L79.7697 14.534H83.2364L77.1059 0.149414H74.7339L68.6034 14.534H71.8876ZM75.8287 4.81973L76.3031 6.2395L77.3978 8.89225H74.2596L75.3543 6.27687L75.8287 4.81973ZM84.7689 0.149414H88.0167V14.534H84.7689V0.149414ZM94.4393 8.92968L96.0084 9.11649L99.986 14.5341H104L99.6211 8.92968L99.1467 8.44397C99.1814 8.43065 99.2166 8.41732 99.2521 8.40387C99.5156 8.30418 99.7974 8.19759 100.022 8.03298C100.387 7.80881 100.716 7.5099 101.008 7.17364C101.3 6.83737 101.519 6.42639 101.665 5.94068C101.811 5.45496 101.92 4.93189 101.92 4.33409C101.92 3.54948 101.774 2.87694 101.446 2.31651C101.117 1.75607 100.716 1.30773 100.168 0.971463C99.8765 0.78465 99.5846 0.635195 99.2561 0.523108C98.9277 0.41102 98.5628 0.298937 98.1979 0.224212C97.833 0.149487 97.4681 0.112115 97.0667 0.0747525C96.7019 0.037399 96.337 0.037399 95.9722 0.037399H95.9719H95.9717C95.6798 0.037399 95.315 0.037399 94.9137 0.0747525C94.5434 0.0747525 94.1731 0.106553 93.7742 0.140813L93.673 0.149482C93.2351 0.186845 92.8337 0.224203 92.4323 0.261565C92.0309 0.298928 91.666 0.336299 91.3376 0.411025L91.1916 0.448378V14.5341H94.4393V8.92968ZM97.7965 6.42639C97.5411 6.57584 97.2491 6.68793 96.8842 6.72529C96.5193 6.80001 96.1545 6.80001 95.8261 6.80001H95.826H94.4393V3.3253H94.6218C94.7677 3.3253 94.9137 3.3253 95.0597 3.28793H95.5705C96.1179 3.28793 96.6288 3.28794 97.0667 3.36266C97.3586 3.40003 97.6505 3.51211 97.8695 3.66156C98.0884 3.81101 98.2344 3.96046 98.3804 4.222C98.4898 4.44617 98.5628 4.70771 98.5628 4.93188C98.5628 5.34287 98.4898 5.64177 98.3804 5.90331C98.1979 6.09013 98.0154 6.27694 97.7965 6.42639ZM56.5206 27.5709C56.4851 27.5843 56.4499 27.5976 56.4153 27.6109L56.8897 28.134L61.2686 33.7383H57.2546L53.2771 28.3208L51.7079 28.134V33.7383H48.4602V19.6153L48.6062 19.5779C48.9346 19.5032 49.2995 19.4659 49.7009 19.4285L49.7031 19.4283C50.1038 19.391 50.5045 19.3537 50.9416 19.3164L51.0424 19.3078L51.0425 19.3078C51.4416 19.2735 51.8119 19.2417 52.1823 19.2417C52.5837 19.2043 52.9486 19.2043 53.2406 19.2043C53.6055 19.2043 53.9704 19.2043 54.3353 19.2417C54.7367 19.279 55.1016 19.3164 55.4665 19.3911C55.8314 19.4659 56.1963 19.5779 56.5248 19.69C56.8532 19.8021 57.1451 19.9516 57.437 20.1384C57.9844 20.4746 58.3858 20.923 58.7142 21.4834C59.0427 22.0439 59.1886 22.7164 59.1886 23.501C59.1886 24.0988 59.0792 24.6219 58.9332 25.1076C58.7872 25.5933 58.5683 26.0043 58.2763 26.3406C57.9844 26.6768 57.656 26.9757 57.2911 27.1999C57.066 27.3645 56.7843 27.4711 56.5207 27.5708L56.5206 27.5709ZM55.576 24.7713C55.6855 24.5098 55.7584 24.2109 55.7584 23.7999C55.7584 23.5384 55.6855 23.3142 55.6125 23.1274C55.4665 22.8658 55.3206 22.7164 55.1016 22.5669C54.8827 22.4175 54.5907 22.3054 54.2988 22.268C53.8609 22.1933 53.35 22.1933 52.8027 22.1933H52.2918C52.1458 22.2307 51.9999 22.2307 51.8539 22.2307H51.6714V25.7054H53.0581H53.0582C53.3866 25.7054 53.7515 25.7054 54.1163 25.6307C54.4813 25.5933 54.7732 25.4812 55.0286 25.3318C55.2476 25.1823 55.43 24.9955 55.576 24.7713ZM73.0553 21.1846C72.4349 20.5495 71.7051 20.0264 70.8293 19.6528C69.9535 19.2792 68.9683 19.1297 67.8735 19.1297C66.8153 19.1297 65.8665 19.3165 65.0272 19.6154C64.1879 19.9517 63.4216 20.4374 62.8013 21.0726C62.1809 21.7077 61.7065 22.4923 61.3781 23.4264C61.0497 24.3605 60.8672 25.4066 60.8672 26.5649C60.8672 27.7231 61.0497 28.7692 61.3781 29.7033C61.7065 30.6374 62.1809 31.422 62.8013 32.0571C63.4216 32.6923 64.1514 33.178 65.0272 33.5143C65.8665 33.8505 66.8518 34 67.8735 34C68.9683 34 69.9535 33.8132 70.8293 33.4769C71.7051 33.1033 72.4349 32.6176 73.0553 31.9451C73.6756 31.2725 74.1135 30.4879 74.4419 29.5912C74.7704 28.6945 74.9163 27.6857 74.9163 26.5649C74.9163 25.4813 74.7704 24.4726 74.4419 23.5758C74.1135 22.6418 73.6756 21.8198 73.0553 21.1846ZM71.4861 26.5275C71.4861 27.1627 71.4132 27.7604 71.2672 28.3209C71.1212 28.8813 70.9023 29.3297 70.6104 29.7407C70.3184 30.1143 69.9535 30.4506 69.4791 30.6747C69.0412 30.8989 68.4939 31.011 67.8735 31.011C67.3262 31.011 66.8153 30.9363 66.3774 30.7495C65.9395 30.5626 65.5746 30.3011 65.2462 29.9648C64.9177 29.5912 64.6988 29.1429 64.5163 28.5824C64.3339 28.022 64.2609 27.3495 64.2609 26.5649C64.2609 25.7802 64.3339 25.1077 64.5163 24.5473C64.6988 23.9868 64.9177 23.5385 65.2462 23.1649C65.5381 22.7912 65.9395 22.5297 66.3774 22.3802C66.8153 22.1934 67.3262 22.1187 67.8735 22.1187C68.4939 22.1187 69.0412 22.2308 69.4791 22.455C69.917 22.6791 70.3184 22.9781 70.6104 23.389C70.9023 23.7627 71.1212 24.2484 71.2672 24.8088C71.4132 25.2945 71.4861 25.8923 71.4861 26.5275ZM85.3895 29.5537C85.499 29.2175 85.572 28.8065 85.572 28.3208V19.3911H88.6737V28.4702C88.6737 29.4043 88.5277 30.2263 88.2358 30.8988C87.9804 31.6087 87.579 32.1691 87.0681 32.6175C86.5572 33.0658 85.9734 33.4021 85.28 33.6263C84.5867 33.8131 83.8569 33.9252 83.0906 33.9252C82.1783 33.9252 81.339 33.8504 80.6091 33.6263C79.8428 33.4021 79.2225 33.0658 78.7116 32.6548C78.2007 32.2438 77.7993 31.6834 77.5439 31.0482C77.2885 30.4131 77.1425 29.6658 77.1425 28.8438V19.3911H80.3902V28.3208C80.3902 29.2175 80.6092 29.9274 81.0106 30.3383C81.412 30.7493 82.1053 30.9735 83.0541 30.9735C83.4555 30.9735 83.8204 30.9362 84.1488 30.8241C84.4407 30.7493 84.6962 30.5999 84.9151 30.3757C85.1341 30.1515 85.28 29.89 85.3895 29.5537Z" fill="#8F9090"/>
<path d="M43.6799 2.72746L42.7671 3.13604L42.7704 3.14338L42.7738 3.15068L43.6799 2.72746ZM41.5999 0.635157L41.9849 -0.287786L41.9789 -0.29024L41.5999 0.635157ZM42.3662 9.75163L42.9666 10.5513L42.9716 10.5476L42.3662 9.75163ZM40.5051 10.6483L40.7158 11.6259L40.7407 11.6205L40.7653 11.6139L40.5051 10.6483ZM37.2757 10.8912L37.3887 9.89759L37.3887 9.89759L37.2757 10.8912ZM36.929 10.8725V9.87251H35.929V10.8725H36.929ZM36.929 14.534V15.534H37.929V14.534H36.929ZM33.6813 14.534H32.6813V15.534H33.6813V14.534ZM33.6813 0.373626L33.4333 -0.595136L32.6813 -0.40263V0.373626H33.6813ZM33.8272 0.336261L33.6387 -0.645806L33.6088 -0.64006L33.5793 -0.632501L33.8272 0.336261ZM35.7613 0.0747183L35.7075 -0.923833L35.6807 -0.922392L35.6541 -0.919524L35.7613 0.0747183ZM39.1915 0.0747183L39.0988 1.07044L39.1064 1.0711L39.1915 0.0747183ZM40.4686 0.261531L40.7376 -0.701623L40.6951 -0.713498L40.6517 -0.721579L40.4686 0.261531ZM38.8995 7.92085L38.7548 6.93138L38.7356 6.93419L38.7165 6.93774L38.8995 7.92085ZM37.6223 7.95822L37.715 6.96252L37.6688 6.95822H37.6223V7.95822ZM39.2929 3.15361L39.5123 2.17797L39.5123 2.17797L39.2929 3.15361ZM39.2279 3.13845L39.4759 2.16969L39.4759 2.16969L39.2279 3.13845ZM37.7846 3.04705L37.853 4.04471L37.853 4.04471L37.7846 3.04705ZM36.9655 3.10109L36.8524 2.1075L35.9655 2.2084V3.10109H36.9655ZM36.9655 7.92085H35.9655V8.85492L36.8974 8.91853L36.9655 7.92085ZM0 0.149414V-0.850586H-1V0.149414H0ZM0 29.1801H-1V29.8726L-0.351793 30.1162L0 29.1801ZM25.2519 0.149414H26.2519V-0.850586H25.2519V0.149414ZM25.2519 29.1801L25.6037 30.1162L26.2519 29.8726V29.1801H25.2519ZM12.6259 33.9252L12.2742 34.8612L12.6259 34.9934L12.9777 34.8612L12.6259 33.9252ZM19.0849 8.78016L19.3538 7.81701L19.3383 7.81268L19.3227 7.80885L19.0849 8.78016ZM20.1796 9.11643L20.5026 8.17003L20.5026 8.17003L20.1796 9.11643ZM14.487 8.66807L14.239 7.6993L12.1867 8.22464L13.8967 9.47524L14.487 8.66807ZM15.9831 10.4241L15.1099 10.9115L15.4283 11.482L16.0787 11.4195L15.9831 10.4241ZM19.7052 11.0219L20.1071 10.1062L20.0957 10.1012L20.0842 10.0965L19.7052 11.0219ZM20.0337 11.1725L20.4587 10.2674L20.4587 10.2673L20.0337 11.1725ZM20.3621 11.3208L19.9831 12.2462L20.8876 12.6167L21.2786 11.7208L20.3621 11.3208ZM21.1284 9.56478L22.0449 9.96474L22.4209 9.1031L21.5841 8.67466L21.1284 9.56478ZM21.0554 9.52742L20.5504 10.3905L20.5747 10.4047L20.5997 10.4175L21.0554 9.52742ZM7.59009 10.3684L7.41875 9.38323L7.41706 9.38353L7.59009 10.3684ZM7.59012 10.3684L7.76146 11.3537L7.76316 11.3534L7.59012 10.3684ZM7.69964 10.3494L7.56438 9.35858L7.54785 9.36083L7.53142 9.36364L7.69964 10.3494ZM11.4947 10.5362L11.0929 11.4519L11.119 11.4634L11.1458 11.4734L11.4947 10.5362ZM12.553 11.2087L11.8376 11.9074L11.8609 11.9313L11.8857 11.9535L12.553 11.2087ZM13.2098 12.2175L12.2675 12.5522L12.2727 12.5669L12.2784 12.5814L13.2098 12.2175ZM13.1733 14.945L14.0873 15.3507L14.0937 15.3364L14.0996 15.3219L13.1733 14.945ZM12.4435 16.0659L11.7704 15.3263L11.7487 15.3461L11.7281 15.3671L12.4435 16.0659ZM12.334 16.1779L11.6186 15.4792L11.2521 15.8545L11.3525 16.3693L12.334 16.1779ZM12.3357 16.1863L13.3172 15.9951L13.3172 15.9949L12.3357 16.1863ZM13.1733 18.0834L12.4039 18.7222L12.9789 19.4149L13.728 18.9155L13.1733 18.0834ZM13.1734 18.0834L13.7281 18.9155L13.7371 18.9093L13.1734 18.0834ZM13.8302 17.5977L13.1965 16.8241L13.1887 16.8305L13.1811 16.837L13.8302 17.5977ZM15.1803 11.3208L14.2525 11.6939L14.2525 11.6939L15.1803 11.3208ZM12.2975 8.7428L12.6052 7.7913L12.6023 7.79037L12.2975 8.7428ZM6.60491 8.55599V9.55599H6.70624L6.80552 9.53566L6.60491 8.55599ZM4.78035 8.78016L4.53237 7.8114L4.49441 7.82111L4.45733 7.83377L4.78035 8.78016ZM4.67087 8.81753L4.34786 7.87114L3.67087 8.1022V8.81753H4.67087ZM4.67087 22.156H3.67087V23.156H4.67087V22.156ZM6.78736 22.156V23.156H7.78736V22.156H6.78736ZM6.78736 18.4571L7.08098 17.5011L5.78736 17.1038V18.4571H6.78736ZM8.86736 18.9054L8.71739 19.8941L10.4966 20.164L9.78611 18.5106L8.86736 18.9054ZM8.28989 16.9957L9.27196 16.8072L9.27178 16.8063L8.28989 16.9957ZM8.2835 16.9626L9.26539 16.7731L9.13422 16.0933L8.45171 15.9768L8.2835 16.9626ZM7.10459 16.704L6.86024 17.6737L6.86024 17.6737L7.10459 16.704ZM6.78736 16.6263H5.78736V17.4243L6.56551 17.6014L6.78736 16.6263ZM6.78736 10.4615V9.46148H5.78736V10.4615H6.78736ZM21.2379 21.1098V20.1098H20.8167L20.5224 20.4111L21.2379 21.1098ZM21.2014 21.1472L21.8505 21.9079L21.8851 21.8784L21.9168 21.8458L21.2014 21.1472ZM21.2744 21.1098V22.1098H22.2744V21.1098H21.2744ZM21.2744 15.2439H22.2744V14.2439H21.2744V15.2439ZM17.2238 15.2439V14.2439H16.5815L16.3144 14.8281L17.2238 15.2439ZM16.421 16.9999L15.5116 16.5841L14.8552 18.0198L16.4337 17.9998L16.421 16.9999ZM19.3768 16.9626H20.3768V15.9498L19.3642 15.9626L19.3768 16.9626ZM19.3768 19.8768L20.0922 20.5756L20.3768 20.2842V19.8768H19.3768ZM19.3038 19.9516L19.7595 20.8417L19.905 20.7672L20.0192 20.6503L19.3038 19.9516ZM19.239 19.9889L18.7156 19.1368L18.6997 19.1466L18.6843 19.1569L19.239 19.9889ZM19.239 19.9889L19.7624 20.841L19.7782 20.8313L19.7937 20.821L19.239 19.9889ZM19.0849 20.0636L18.7619 19.1172L18.7336 19.1269L18.7059 19.1382L19.0849 20.0636ZM18.3916 20.2878L18.1108 19.328L18.1108 19.3281L18.3916 20.2878ZM17.5887 20.4373L17.4618 19.4453L17.4564 19.4461L17.5887 20.4373ZM12.407 18.6439L13.2117 18.0501L13.2043 18.0403L12.407 18.6439ZM11.8596 13.1142L12.7582 13.553L12.7709 13.527L12.7821 13.5003L11.8596 13.1142ZM12.2975 12.4043L13.0731 13.0356L13.4992 12.512L13.173 11.921L12.2975 12.4043ZM10.6189 11.3582L10.732 10.3646L10.1418 10.2974L9.80047 10.7836L10.6189 11.3582ZM13.1733 21.8944L13.5841 20.9827L13.5785 20.9802L13.1733 21.8944ZM19.2308 22.0812L18.9619 21.1181L18.9512 21.1211L18.9405 21.1243L19.2308 22.0812ZM20.3621 21.6702L20.7763 22.5804L20.8173 22.5618L20.8565 22.5395L20.3621 21.6702ZM20.5316 21.5749L21.02 22.4475L21.0202 22.4473L20.5316 21.5749ZM20.5338 21.5736L20.0632 20.6913L20.0541 20.6961L20.0451 20.7011L20.5338 21.5736ZM20.5339 21.5736L21.0044 22.4559L21.0134 22.4512L21.0222 22.4462L20.5339 21.5736ZM39.812 28.4703L38.8968 28.0674L38.2792 29.4703H39.812V28.4703ZM40.9797 25.8175H41.9797L40.0645 25.4146L40.9797 25.8175ZM43.0232 28.4703H44.0232V27.4703H43.0232V28.4703ZM43.0232 30.5252L43.4789 31.4153L44.0232 31.1367V30.5252H43.0232ZM42.5489 30.712L42.3483 29.7323L42.286 29.7451L42.2258 29.7656L42.5489 30.712ZM41.9379 30.8476L41.773 29.8613L41.7573 29.8639L41.7418 29.867L41.9379 30.8476ZM41.9378 30.8476L42.1038 31.8337L42.1189 31.8312L42.1339 31.8282L41.9378 30.8476ZM41.8555 30.8615L41.6895 29.8753L41.6873 29.8757L41.8555 30.8615ZM40.8128 30.9577L40.7192 29.9621L40.7192 29.9621L40.8128 30.9577ZM38.9362 30.8241L38.7063 31.7973L38.7141 31.7992L38.7219 31.8009L38.9362 30.8241ZM37.659 30.301L38.2416 29.4882L38.2127 29.4676L38.1825 29.449L37.659 30.301ZM36.1994 24.5472L35.268 24.1833L35.2641 24.1932L35.2604 24.2033L36.1994 24.5472ZM37.1482 23.1274L36.4991 22.3667L36.4827 22.3807L36.4668 22.3954L37.1482 23.1274ZM37.878 22.6043L38.3337 23.4945L38.3587 23.4817L38.383 23.4675L37.878 22.6043ZM38.7173 22.2681L38.4693 21.2993L38.4693 21.2993L38.7173 22.2681ZM39.6296 22.0813L39.5122 21.0881L39.5026 21.0894L39.6296 22.0813ZM42.5124 22.3054L42.7859 21.3435L42.7781 21.3414L42.5124 22.3054ZM44.3369 22.978L43.9281 23.8906L43.9429 23.8972L43.958 23.9034L44.3369 22.978ZM44.5194 23.0527L44.1404 23.9781L45.1369 24.3862L45.4703 23.3623L44.5194 23.0527ZM45.4682 20.1384L46.419 20.448L46.6831 19.637L45.9239 19.2483L45.4682 20.1384ZM45.3222 20.0637L45.7779 19.1736L45.7692 19.1691L45.7604 19.1648L45.3222 20.0637ZM42.8773 19.2791L43.0859 18.3011L43.0658 18.2968L43.0455 18.2933L42.8773 19.2791ZM38.7538 19.167L38.6185 18.1761L38.6091 18.1775L38.7538 19.167ZM37.1847 19.5406L36.8412 18.6014L36.8412 18.6014L37.1847 19.5406ZM35.6885 20.2505L35.1554 19.4044L35.1554 19.4044L35.6885 20.2505ZM34.3748 21.3714L33.6298 20.7044L33.6221 20.7129L33.6146 20.7217L34.3748 21.3714ZM33.6086 22.3427L34.398 22.9567L34.4049 22.9476L33.6086 22.3427ZM33.6085 22.3428L32.8192 21.7289L32.7856 21.7721L32.7569 21.8187L33.6085 22.3428ZM33.6085 22.3429L32.7568 21.8188L32.7512 21.828L32.7457 21.8373L33.6085 22.3429ZM32.9882 23.5384L33.9022 23.9442L33.9085 23.9299L33.9144 23.9153L32.9882 23.5384ZM32.5868 24.9208L33.5623 25.1407L33.5623 25.1407L32.5868 24.9208ZM32.9517 29.5911L32.0127 29.935L32.0127 29.935L32.9517 29.5911ZM34.4843 31.945L33.7881 32.6628L33.7954 32.6699L33.803 32.677L34.4843 31.945ZM35.7615 32.9164L35.2787 33.7921L35.2787 33.7921L35.7615 32.9164ZM37.2211 33.5516L36.9404 34.5113L36.9404 34.5113L37.2211 33.5516ZM38.7538 33.8878L38.8985 32.8984L38.8985 32.8984L38.7538 33.8878ZM41.4541 33.9626L41.3691 32.9662L41.3691 32.9662L41.4541 33.9626ZM42.6145 33.8058L42.4731 32.8159L42.4652 32.817L42.4574 32.8183L42.6145 33.8058ZM42.6147 33.8058L42.7561 34.7958L42.7638 34.7947L42.7714 34.7935L42.6147 33.8058ZM42.8043 33.7757L42.961 34.7634L43.0043 34.7565L43.0468 34.7459L42.8043 33.7757ZM42.8043 33.7757L42.5744 32.8024L42.5618 32.8056L42.8043 33.7757ZM44.2275 33.3648L43.8613 32.4342L43.861 32.4343L44.2275 33.3648ZM44.2937 33.3387L43.9277 32.4081L43.9276 32.4081L44.2937 33.3387ZM45.7601 32.6549L45.3044 31.7647L45.2647 31.785L45.227 31.8088L45.7601 32.6549ZM45.8331 32.6175L46.2888 33.5076L46.8331 33.229V32.6175H45.8331ZM45.8331 25.9296H46.8331V24.9296H45.8331V25.9296ZM40.9797 25.9296H39.9797V26.9296H40.9797V25.9296ZM99.402 19.8395L99.023 20.7649L99.0289 20.7672L99.402 19.8395ZM98.2708 19.4659L98.5397 18.5027L98.4972 18.4908L98.4538 18.4827L98.2708 19.4659ZM101.482 21.8944L100.569 22.303L100.576 22.3182L100.583 22.3332L101.482 21.8944ZM100.168 28.9186L100.769 29.7183L100.774 29.7145L100.168 28.9186ZM98.3073 29.8153L98.518 30.7928L98.5429 30.7875L98.5675 30.7808L98.3073 29.8153ZM95.0778 30.0581L95.1909 29.0645L95.1909 29.0645L95.0778 30.0581ZM94.7312 30.0395V29.0395H93.7312V30.0395H94.7312ZM94.7312 33.701V34.701H95.7312V33.701H94.7312ZM91.4835 33.701H90.4835V34.701H91.4835V33.701ZM91.4835 19.5779L91.2355 18.6092L90.4835 18.8017V19.5779H91.4835ZM91.6294 19.5406L91.4409 18.5585L91.411 18.5643L91.3814 18.5718L91.6294 19.5406ZM93.5634 19.279L93.5096 18.2805L93.4829 18.2819L93.4563 18.2848L93.5634 19.279ZM96.9935 19.279L96.9008 20.2748L96.9104 20.2756L96.9935 19.279ZM96.9936 19.279L97.0786 18.2827L97.0767 18.2825L96.9936 19.279ZM96.7017 27.1252L96.8847 28.1083L96.9004 28.1054L96.916 28.102L96.7017 27.1252ZM95.4245 27.1625L95.5172 26.1668L95.4709 26.1625H95.4245V27.1625ZM96.7845 27.1076L96.5829 26.1281L96.58 26.1287L96.7845 27.1076ZM96.7853 27.1075L96.987 28.0869L96.9897 28.0863L96.7853 27.1075ZM97.0951 22.3579L96.8757 23.3336L96.8757 23.3336L97.0951 22.3579ZM97.0301 22.3428L96.7821 23.3115L96.7821 23.3115L97.0301 22.3428ZM95.5868 22.2514L95.6491 23.2494L95.6552 23.249L95.5868 22.2514ZM95.5867 22.2514L95.5243 21.2533L95.5182 21.2537L95.5867 22.2514ZM94.7677 22.3054L94.6546 21.3118L93.7677 21.4127V22.3054H94.7677ZM94.7677 27.1252H93.7677V28.0593L94.6996 28.1229L94.7677 27.1252ZM55.1017 14.3099L55.4602 15.2434L55.4773 15.2368L55.4941 15.2296L55.1017 14.3099ZM57.3277 12.778L56.6123 12.0793L56.6023 12.0895L56.5927 12.1L57.3277 12.778ZM58.7144 10.4241L57.7754 10.0802L57.7754 10.0802L58.7144 10.4241ZM58.7144 4.40878L57.7754 4.75269L57.7754 4.75269L58.7144 4.40878ZM57.3277 2.05494L58.0628 1.37692L58.0531 1.36643L58.0431 1.35622L57.3277 2.05494ZM55.1017 0.523073L54.7093 1.44287L54.7093 1.44287L55.1017 0.523073ZM49.2997 0.485709L48.9642 -0.456335L48.9458 -0.449802L48.9277 -0.442561L49.2997 0.485709ZM47.0737 1.94285L47.7891 2.64156L47.7891 2.64156L47.0737 1.94285ZM45.6505 4.29669L46.5939 4.62839L46.5939 4.62839L45.6505 4.29669ZM45.6505 10.5736L46.5939 10.2419L46.5939 10.2419L45.6505 10.5736ZM49.2997 14.3846L48.9412 15.3181L48.9713 15.3297L49.0021 15.3393L49.2997 14.3846ZM48.8253 5.34284L47.8744 5.03327L47.8744 5.03327L48.8253 5.34284ZM49.5551 3.96043L50.3062 4.62064L50.3062 4.62064L49.5551 3.96043ZM50.6863 3.17582L51.0093 4.12222L51.0445 4.1102L51.0787 4.09561L50.6863 3.17582ZM53.7881 3.25054L54.2438 2.3604L54.2438 2.3604L53.7881 3.25054ZM54.9193 4.1846L54.104 4.76369L54.1172 4.7823L54.1313 4.80029L54.9193 4.1846ZM55.5761 5.60438L54.6084 5.85642L54.6084 5.85642L55.5761 5.60438ZM55.5761 9.19119L54.6084 8.93915L54.6084 8.93916L55.5761 9.19119ZM54.9193 10.611L55.7073 11.2267L55.7213 11.2087L55.7346 11.1901L54.9193 10.611ZM53.7881 11.545L53.3608 10.6409L53.3465 10.6477L53.3324 10.6549L53.7881 11.545ZM50.6863 11.6198L51.0787 10.7L51.0787 10.7L50.6863 11.6198ZM49.5551 10.8351L48.804 11.4954L48.8213 11.5151L48.8397 11.5339L49.5551 10.8351ZM48.8253 9.45272L47.8641 9.72881L47.869 9.74564L47.8744 9.76229L48.8253 9.45272ZM68.6398 11.545L69.5594 11.9379L70.1546 10.545H68.6398V11.545ZM64.4799 11.545H63.4799V12.545H64.4799V11.545ZM67.3627 14.534V15.534H68.0228L68.2822 14.9269L67.3627 14.534ZM61.2321 14.534H60.2321V15.534H61.2321V14.534ZM61.2321 0.149414V-0.850586H60.2321V0.149414H61.2321ZM64.4799 0.149414H65.4799V-0.850586H64.4799V0.149414ZM73.1283 11.5824V10.5824H72.4639L72.2064 11.1949L73.1283 11.5824ZM71.8876 14.534V15.534H72.552L72.8095 14.9215L71.8876 14.534ZM78.529 11.5824L79.4509 11.1949L79.1934 10.5824H78.529V11.5824ZM79.7697 14.534L78.8478 14.9215L79.1053 15.534H79.7697V14.534ZM83.2364 14.534V15.534H84.7496L84.1563 14.1419L83.2364 14.534ZM77.1059 0.149414L78.0258 -0.242652L77.7667 -0.850586H77.1059V0.149414ZM74.7339 0.149414V-0.850586H74.0731L73.814 -0.242651L74.7339 0.149414ZM68.6034 14.534L67.6835 14.1419L67.0902 15.534H68.6034V14.534ZM76.3031 6.2395L75.3546 6.55641L75.3655 6.58911L75.3787 6.62098L76.3031 6.2395ZM75.8287 4.81973L76.7771 4.50282L75.8163 1.6273L74.8778 4.51017L75.8287 4.81973ZM77.3978 8.89225V9.89225H78.8923L78.3222 8.51077L77.3978 8.89225ZM74.2596 8.89225L73.3371 8.50613L72.7569 9.89225H74.2596V8.89225ZM75.3543 6.27687L76.2767 6.66298L76.2925 6.62529L76.3052 6.58643L75.3543 6.27687ZM88.0167 0.149414H89.0167V-0.850586H88.0167V0.149414ZM84.7689 0.149414V-0.850586H83.7689V0.149414H84.7689ZM88.0167 14.534V15.534H89.0167V14.534H88.0167ZM84.7689 14.534H83.7689V15.534H84.7689V14.534ZM96.0084 9.11649L96.8145 8.52468L96.5576 8.17482L96.1267 8.12351L96.0084 9.11649ZM94.4393 8.92968L94.5575 7.93669L93.4393 7.80356V8.92968H94.4393ZM99.986 14.5341L99.1799 15.1259L99.4796 15.5341H99.986V14.5341ZM104 14.5341V15.5341H106.05L104.788 13.9184L104 14.5341ZM99.6211 8.92968L100.409 8.31399L100.375 8.27048L100.336 8.23097L99.6211 8.92968ZM99.1467 8.44397L98.7882 7.51043L97.3692 8.05529L98.4313 9.14269L99.1467 8.44397ZM99.2521 8.40387L99.606 9.33919L99.606 9.33917L99.2521 8.40387ZM100.022 8.03298L99.499 7.18092L99.4647 7.20202L99.4321 7.22581L100.022 8.03298ZM101.008 7.17364L100.253 6.51806L100.253 6.51806L101.008 7.17364ZM101.665 5.94068L102.622 6.22848L102.622 6.22847L101.665 5.94068ZM101.446 2.31651L100.583 2.82209L100.583 2.8221L101.446 2.31651ZM100.168 0.971463L99.6294 1.81376L99.6371 1.81871L99.645 1.82352L100.168 0.971463ZM99.2561 0.523108L99.5791 -0.423292L99.5791 -0.423292L99.2561 0.523108ZM98.1979 0.224212L98.3985 -0.755459L98.3985 -0.755459L98.1979 0.224212ZM97.0667 0.0747525L96.9648 1.06959L96.974 1.07045L97.0667 0.0747525ZM95.9722 0.037399L95.9722 1.0374L95.9722 0.037399ZM95.9717 0.037399V1.0374V0.037399ZM94.9137 0.0747525V1.07475H94.9601L95.0064 1.07045L94.9137 0.0747525ZM93.7742 0.140813L93.8595 1.13716L93.8597 1.13715L93.7742 0.140813ZM93.673 0.149482L93.758 1.14586L93.7584 1.14583L93.673 0.149482ZM92.4323 0.261565L92.525 1.25726L92.525 1.25726L92.4323 0.261565ZM91.3376 0.411025L91.1157 -0.564054L91.1026 -0.56108L91.0896 -0.557757L91.3376 0.411025ZM91.1916 0.448378L90.9437 -0.520403L90.1916 -0.327941V0.448378H91.1916ZM91.1916 14.5341H90.1916V15.5341H91.1916V14.5341ZM94.4393 14.5341V15.5341H95.4393V14.5341H94.4393ZM96.8842 6.72529L96.7824 5.73049L96.7326 5.73559L96.6836 5.74562L96.8842 6.72529ZM97.7965 6.42639L98.3015 7.28951L98.3315 7.27194L98.3603 7.25232L97.7965 6.42639ZM94.4393 6.80001H93.4393V7.80001H94.4393V6.80001ZM94.4393 3.3253V2.3253H93.4393V3.3253H94.4393ZM95.0597 3.28793V2.28793H94.9337L94.8117 2.31917L95.0597 3.28793ZM97.0667 3.36266L96.8985 4.34841L96.919 4.35192L96.9397 4.35457L97.0667 3.36266ZM97.8695 3.66156L98.4333 2.83563L98.4333 2.83563L97.8695 3.66156ZM98.3804 4.222L99.2789 3.78318L99.2669 3.75857L99.2536 3.73465L98.3804 4.222ZM98.3804 5.90331L99.0958 6.60203L99.2291 6.46549L99.3028 6.28943L98.3804 5.90331ZM56.4153 27.6109L56.0569 26.6773L54.6934 27.2008L55.6746 28.2827L56.4153 27.6109ZM56.5206 27.5709L56.8744 28.5062L56.8832 28.5028L56.892 28.4993L56.5206 27.5709ZM56.8897 28.134L57.6777 27.5183L57.6551 27.4894L57.6304 27.4622L56.8897 28.134ZM61.2686 33.7383V34.7383H63.319L62.0566 33.1227L61.2686 33.7383ZM57.2546 33.7383L56.4485 34.3302L56.7482 34.7383H57.2546V33.7383ZM53.2771 28.3208L54.0831 27.729L53.8263 27.3791L53.3953 27.3278L53.2771 28.3208ZM51.7079 28.134L51.8262 27.141L50.7079 27.0078V28.134H51.7079ZM51.7079 33.7383V34.7383H52.7079V33.7383H51.7079ZM48.4602 33.7383H47.4602V34.7383H48.4602V33.7383ZM48.4602 19.6153L48.2122 18.6465L47.4602 18.839V19.6153H48.4602ZM48.6062 19.5779L48.3843 18.6029L48.3712 18.6058L48.3582 18.6092L48.6062 19.5779ZM49.7009 19.4285L49.7936 20.4242L49.7936 20.4242L49.7009 19.4285ZM49.7031 19.4283L49.6104 18.4326L49.6104 18.4326L49.7031 19.4283ZM50.9416 19.3164L51.0266 20.3128L51.027 20.3127L50.9416 19.3164ZM51.0424 19.3078L50.9594 18.3112L50.957 18.3114L51.0424 19.3078ZM51.0425 19.3078L51.1255 20.3043L51.1281 20.3041L51.0425 19.3078ZM52.1823 19.2417V20.2417H52.2288L52.275 20.2374L52.1823 19.2417ZM54.3353 19.2417L54.2334 20.2365L54.2426 20.2374L54.3353 19.2417ZM55.4665 19.3911L55.2659 20.3708L55.2659 20.3708L55.4665 19.3911ZM56.5248 19.69L56.2018 20.6364L56.2018 20.6364L56.5248 19.69ZM57.437 20.1384L56.898 20.9807L56.9058 20.9856L56.9136 20.9904L57.437 20.1384ZM58.7142 21.4834L59.577 20.9778L59.577 20.9778L58.7142 21.4834ZM58.2763 26.3406L57.5212 25.685L57.5212 25.685L58.2763 26.3406ZM57.2911 27.1999L56.7676 26.3478L56.7333 26.3689L56.7008 26.3927L57.2911 27.1999ZM56.5207 27.5708L56.1669 26.6355L56.1581 26.6388L56.1494 26.6423L56.5207 27.5708ZM55.576 24.7713L56.414 25.317L56.4635 25.241L56.4984 25.1575L55.576 24.7713ZM55.6125 23.1274L56.5439 22.7635L56.519 22.6998L56.4857 22.64L55.6125 23.1274ZM54.2988 22.268L54.1306 23.2538L54.1512 23.2573L54.1718 23.26L54.2988 22.268ZM52.2918 22.1933V21.1933H52.1658L52.0438 21.2246L52.2918 22.1933ZM51.6714 22.2307V21.2307H50.6714V22.2307H51.6714ZM51.6714 25.7054H50.6714V26.7054H51.6714V25.7054ZM54.1163 25.6307L54.0145 24.6359L53.9647 24.641L53.9157 24.651L54.1163 25.6307ZM55.0286 25.3318L55.5336 26.1949L55.5637 26.1773L55.5924 26.1577L55.0286 25.3318ZM73.0553 21.1846L73.7707 20.4859L73.7707 20.4859L73.0553 21.1846ZM65.0272 19.6154L64.6917 18.6734L64.6734 18.6799L64.6553 18.6871L65.0272 19.6154ZM62.8013 21.0726L63.5166 21.7713L63.5167 21.7713L62.8013 21.0726ZM61.3781 23.4264L62.3215 23.7581L62.3215 23.7581L61.3781 23.4264ZM61.3781 29.7033L62.3215 29.3716L62.3215 29.3716L61.3781 29.7033ZM62.8013 32.0571L62.0858 32.7559L62.0859 32.7559L62.8013 32.0571ZM65.0272 33.5143L65.3991 32.586L65.3924 32.5833L65.3857 32.5807L65.0272 33.5143ZM70.8293 33.4769L71.1877 34.4105L71.2049 34.4039L71.2217 34.3967L70.8293 33.4769ZM73.0553 31.9451L73.7903 32.6231L73.7903 32.6231L73.0553 31.9451ZM74.4419 23.5758L73.4985 23.9076L73.5029 23.9198L74.4419 23.5758ZM70.6104 29.7407L71.3983 30.3564L71.4124 30.3384L71.4256 30.3198L70.6104 29.7407ZM69.4791 30.6747L69.0519 29.7706L69.0375 29.7774L69.0234 29.7846L69.4791 30.6747ZM66.3774 30.7495L66.7698 29.8297L66.7698 29.8297L66.3774 30.7495ZM65.2462 29.9648L64.4951 30.625L64.5124 30.6448L64.5307 30.6635L65.2462 29.9648ZM65.2462 23.1649L65.9972 23.8251L66.0163 23.8033L66.0341 23.7805L65.2462 23.1649ZM66.3774 22.3802L66.7004 23.3266L66.7356 23.3146L66.7698 23.3L66.3774 22.3802ZM69.4791 22.455L69.9348 21.5648L69.9348 21.5648L69.4791 22.455ZM70.6104 23.389L69.7951 23.9681L69.8083 23.9867L69.8224 24.0047L70.6104 23.389ZM71.2672 24.8088L70.2995 25.0609L70.3042 25.0788L70.3095 25.0966L71.2672 24.8088ZM85.572 19.3911V18.3911H84.572V19.3911H85.572ZM88.6737 19.3911H89.6737V18.3911H88.6737V19.3911ZM88.2358 30.8988L87.3185 30.5006L87.3057 30.53L87.2949 30.5602L88.2358 30.8988ZM87.0681 32.6175L87.7277 33.3691L87.7277 33.3691L87.0681 32.6175ZM85.28 33.6263L85.5402 34.5918L85.5641 34.5854L85.5877 34.5778L85.28 33.6263ZM80.6091 33.6263L80.9028 32.6703L80.8899 32.6665L80.6091 33.6263ZM78.7116 32.6548L79.3384 31.8757L79.3384 31.8757L78.7116 32.6548ZM77.5439 31.0482L78.4717 30.6751L78.4717 30.6751L77.5439 31.0482ZM77.1425 19.3911V18.3911H76.1425V19.3911H77.1425ZM80.3902 19.3911H81.3902V18.3911H80.3902V19.3911ZM81.0106 30.3383L80.2951 31.0371L80.2952 31.0371L81.0106 30.3383ZM84.1488 30.8241L83.9008 29.8553L83.8629 29.865L83.8258 29.8777L84.1488 30.8241ZM84.9151 30.3757L85.6305 31.0744L85.6305 31.0744L84.9151 30.3757ZM44.5926 2.31889C44.1062 1.23222 43.2447 0.237775 41.9849 -0.287767L41.2149 1.55808C41.9255 1.85451 42.4508 2.4293 42.7671 3.13604L44.5926 2.31889ZM45.2637 5.52965C45.2637 4.43779 45.0593 3.31763 44.5859 2.30425L42.7738 3.15068C43.1033 3.85597 43.2637 4.67867 43.2637 5.52965H45.2637ZM42.9716 10.5476C44.5563 9.34225 45.2637 7.40376 45.2637 5.52965H43.2637C43.2637 6.94345 42.7305 8.21815 41.7608 8.95569L42.9716 10.5476ZM40.7653 11.6139C41.5755 11.3956 42.3125 11.0425 42.9666 10.5513L41.7658 8.95195C41.3252 9.28277 40.8215 9.52743 40.245 9.68276L40.7653 11.6139ZM38.2792 11.9099C39.1003 11.9099 39.9767 11.7852 40.7158 11.6259L40.2944 9.67078C39.6469 9.81035 38.9177 9.90986 38.2792 9.90986V11.9099ZM37.9872 11.9099H38.2792V9.90986H37.9872V11.9099ZM37.5129 11.9099H37.9872V9.90986H37.5129V11.9099ZM37.1627 11.8848C37.2301 11.8924 37.3721 11.9099 37.5129 11.9099V9.90986C37.5166 9.90986 37.5096 9.91 37.4851 9.90785C37.4602 9.90567 37.4322 9.90253 37.3887 9.89759L37.1627 11.8848ZM37.0385 11.8725C37.0347 11.8725 37.0418 11.8724 37.0662 11.8745C37.0911 11.8767 37.1192 11.8798 37.1627 11.8848L37.3887 9.89759C37.3212 9.88991 37.1792 9.87251 37.0385 9.87251V11.8725ZM36.929 11.8725H37.0385V9.87251H36.929V11.8725ZM37.929 14.534V10.8725H35.929V14.534H37.929ZM33.6813 15.534H36.929V13.534H33.6813V15.534ZM32.6813 0.373626V14.534H34.6813V0.373626H32.6813ZM33.5793 -0.632501L33.4333 -0.595136L33.9293 1.34239L34.0752 1.30502L33.5793 -0.632501ZM35.6541 -0.919524C34.9654 -0.845296 34.269 -0.766804 33.6387 -0.645806L34.0158 1.31833C34.5532 1.21515 35.1705 1.14418 35.8684 1.06896L35.6541 -0.919524ZM38.0237 -1C37.3027 -1 36.4051 -0.961428 35.7075 -0.923833L35.8151 1.07327C36.5041 1.03614 37.3582 1 38.0237 1V-1ZM39.2841 -0.920978C38.8939 -0.957303 38.4439 -1 38.0237 -1V1C38.3334 1 38.6862 1.03201 39.0988 1.07041L39.2841 -0.920978ZM40.6517 -0.721579C40.2435 -0.797559 39.7657 -0.879916 39.2765 -0.921661L39.1064 1.0711C39.493 1.10408 39.891 1.17117 40.2856 1.24464L40.6517 -0.721579ZM41.9789 -0.29024C41.5604 -0.461607 41.152 -0.585908 40.7376 -0.701623L40.1997 1.22468C40.5881 1.33314 40.9095 1.43302 41.2209 1.56055L41.9789 -0.29024ZM38.7165 6.93774C38.4353 6.99009 38.0598 6.99461 37.715 6.96252L37.5297 8.95392C37.9877 8.99655 38.5609 9.00107 39.0825 8.90396L38.7165 6.93774ZM39.9795 5.60438C39.9795 6.27928 39.7372 6.53104 39.5541 6.66044C39.3064 6.83542 38.9948 6.89628 38.7548 6.93138L39.0443 8.91033C39.3151 8.87071 40.0435 8.76343 40.7081 8.29392C41.4372 7.77881 41.9795 6.9097 41.9795 5.60438H39.9795ZM39.0735 4.12924C39.2524 4.16946 39.4444 4.22068 39.6079 4.37127C39.7381 4.49124 39.9795 4.7949 39.9795 5.60438H41.9795C41.9795 4.34238 41.5765 3.46537 40.9628 2.90018C40.3824 2.36561 39.7311 2.22718 39.5123 2.17797L39.0735 4.12924ZM38.98 4.10722C39.015 4.11618 39.0531 4.12466 39.0735 4.12925L39.5123 2.17797C39.4988 2.17494 39.4901 2.17297 39.4827 2.17126C39.4753 2.16955 39.4739 2.16917 39.4759 2.16969L38.98 4.10722ZM38.2427 4.02637C38.5409 4.02637 38.784 4.05705 38.98 4.10722L39.4759 2.16969C39.0881 2.0704 38.6743 2.02637 38.2427 2.02637V4.02637ZM37.853 4.04471C38.0034 4.0344 38.126 4.02637 38.2427 4.02637V2.02637C38.0465 2.02637 37.8562 2.03979 37.7162 2.0494L37.853 4.04471ZM37.4399 4.06372C37.5828 4.06372 37.7372 4.05265 37.853 4.04471L37.7162 2.0494C37.5805 2.0587 37.5002 2.06372 37.4399 2.06372V4.06372ZM36.9655 3.10109C37.0785 4.09468 37.0785 4.09468 37.0785 4.09468C37.0785 4.09468 37.0785 4.09469 37.0784 4.09469C37.0784 4.09469 37.0784 4.09469 37.0784 4.09469C37.0784 4.0947 37.0784 4.0947 37.0784 4.0947C37.0784 4.09469 37.0785 4.09468 37.0787 4.09466C37.079 4.09462 37.0797 4.09455 37.0806 4.09444C37.0825 4.09423 37.0855 4.0939 37.0895 4.09346C37.0975 4.09257 37.1095 4.09127 37.1244 4.08969C37.1545 4.0865 37.1958 4.08228 37.2406 4.0781C37.286 4.07387 37.332 4.06999 37.3723 4.06724C37.3923 4.06587 37.4089 4.06492 37.4221 4.06434C37.436 4.06372 37.4413 4.06372 37.4399 4.06372V2.06372C37.3137 2.06372 37.1508 2.07782 37.0553 2.08671C36.9998 2.09187 36.9498 2.09699 36.9137 2.10081C36.8956 2.10273 36.8808 2.10435 36.8703 2.10551C36.865 2.10609 36.8608 2.10656 36.8578 2.10689C36.8563 2.10706 36.8551 2.1072 36.8542 2.1073C36.8537 2.10735 36.8534 2.10739 36.8531 2.10743C36.8529 2.10744 36.8528 2.10746 36.8527 2.10747C36.8526 2.10747 36.8526 2.10748 36.8526 2.10748C36.8525 2.10749 36.8525 2.10749 36.8525 2.10749C36.8525 2.10749 36.8524 2.1075 36.9655 3.10109ZM37.9655 7.92085V3.10109H35.9655V7.92085H37.9655ZM37.6223 6.95822C37.6261 6.95822 37.5986 6.95757 37.526 6.95376C37.4638 6.95049 37.3887 6.94604 37.3148 6.94146C37.2413 6.93689 37.1708 6.93231 37.1186 6.92887C37.0926 6.92715 37.0712 6.92571 37.0564 6.92472C37.049 6.92422 37.0432 6.92383 37.0393 6.92356C37.0374 6.92343 37.0359 6.92333 37.0349 6.92327C37.0345 6.92324 37.0341 6.92321 37.0339 6.9232C37.0338 6.92319 37.0337 6.92318 37.0336 6.92318C37.0336 6.92318 37.0336 6.92318 37.0336 6.92318C37.0336 6.92318 37.0336 6.92318 37.0336 6.92318C37.0336 6.92318 37.0336 6.92318 36.9655 7.92085C36.8974 8.91853 36.8974 8.91853 36.8974 8.91853C36.8974 8.91853 36.8974 8.91853 36.8974 8.91854C36.8975 8.91854 36.8975 8.91854 36.8975 8.91854C36.8976 8.91855 36.8977 8.91856 36.8979 8.91857C36.8982 8.91859 36.8986 8.91862 36.8992 8.91865C36.9003 8.91873 36.9019 8.91884 36.904 8.91898C36.9082 8.91927 36.9143 8.91968 36.9221 8.9202C36.9376 8.92125 36.9598 8.92274 36.9868 8.92452C37.0407 8.92808 37.1139 8.93284 37.1909 8.93762C37.3236 8.94585 37.5282 8.95822 37.6223 8.95822V6.95822ZM-1 0.149414V29.1801H1V0.149414H-1ZM25.2519 -0.850586H0V1.14941H25.2519V-0.850586ZM26.2519 29.1801V0.149414H24.2519V29.1801H26.2519ZM12.9777 34.8612L25.6037 30.1162L24.9001 28.244L12.2742 32.9891L12.9777 34.8612ZM-0.351793 30.1162L12.2742 34.8612L12.9777 32.9891L0.351793 28.244L-0.351793 30.1162ZM18.8159 9.74332C19.2026 9.8513 19.5492 9.95789 19.8566 10.0628L20.5026 8.17003C20.1532 8.05078 19.7699 7.9332 19.3538 7.81701L18.8159 9.74332ZM14.735 9.63684C15.8526 9.35075 17.2867 9.36944 18.8471 9.75147L19.3227 7.80885C17.5259 7.36892 15.7487 7.31287 14.239 7.6993L14.735 9.63684ZM16.8563 9.93677C16.3546 9.03769 15.7144 8.32682 15.0773 7.8609L13.8967 9.47524C14.2814 9.75657 14.7359 10.2413 15.1099 10.9115L16.8563 9.93677ZM20.0842 10.0965C18.6688 9.51681 17.2291 9.29992 15.8876 9.42869L16.0787 11.4195C17.0726 11.3241 18.1873 11.4809 19.3262 11.9473L20.0842 10.0965ZM20.4587 10.2673C20.3581 10.2201 20.2376 10.1635 20.1071 10.1062L19.3034 11.9376C19.4072 11.9832 19.5056 12.0293 19.6086 12.0777L20.4587 10.2673ZM20.7411 10.3954C20.6703 10.3664 20.5853 10.3268 20.4587 10.2674L19.6086 12.0777C19.7224 12.1311 19.8563 12.1943 19.9831 12.2462L20.7411 10.3954ZM20.2119 9.16482L19.4455 10.9209L21.2786 11.7208L22.0449 9.96474L20.2119 9.16482ZM20.5997 10.4175L20.6727 10.4549L21.5841 8.67466L21.5111 8.6373L20.5997 10.4175ZM19.8566 10.0628C20.1006 10.1461 20.3296 10.2613 20.5504 10.3905L21.5604 8.66429C21.2704 8.49461 20.9155 8.31093 20.5026 8.17003L19.8566 10.0628ZM7.15227 9.42412H7.0428V11.4241H7.15227V9.42412ZM7.41706 9.38353C7.32719 9.39931 7.26644 9.40986 7.21445 9.4171C7.16239 9.42435 7.14693 9.42412 7.15227 9.42412V11.4241C7.37969 11.4241 7.62281 11.378 7.76312 11.3534L7.41706 9.38353ZM7.41878 9.38323L7.41875 9.38323L7.76143 11.3537L7.76146 11.3536L7.41878 9.38323ZM7.53142 9.36364C7.49105 9.37053 7.45219 9.37735 7.41709 9.38352L7.76316 11.3534C7.79892 11.3471 7.83307 11.3411 7.86787 11.3351L7.53142 9.36364ZM8.97683 9.19994C8.94391 9.19994 8.91698 9.20163 8.91173 9.20194C8.90094 9.20259 8.89129 9.20331 8.88436 9.20385C8.87021 9.20496 8.8552 9.2063 8.84125 9.2076C8.8127 9.21026 8.77655 9.21387 8.73554 9.21813C8.65289 9.22672 8.54237 9.23876 8.41678 9.25305C8.16629 9.28154 7.84811 9.31984 7.56438 9.35858L7.8349 11.3402C8.09854 11.3042 8.40071 11.2678 8.64285 11.2402C8.76358 11.2265 8.86744 11.2152 8.94216 11.2074C8.97984 11.2035 9.00811 11.2007 9.0266 11.199C9.03106 11.1986 9.03452 11.1983 9.03709 11.198C9.03976 11.1978 9.04082 11.1977 9.04062 11.1977C9.04047 11.1978 9.03966 11.1978 9.03831 11.1979C9.03703 11.198 9.03459 11.1982 9.03129 11.1984C9.03084 11.1984 9.00747 11.1999 8.97683 11.1999V9.19994ZM9.63367 9.19994H8.97683V11.1999H9.63367V9.19994ZM9.96209 9.19994H9.63367V11.1999H9.96209V9.19994ZM11.8965 9.62048C11.581 9.48202 10.815 9.19994 9.96209 9.19994V11.1999C10.4228 11.1999 10.8976 11.3662 11.0929 11.4519L11.8965 9.62048ZM13.2684 10.51C12.8599 10.0918 12.3641 9.7928 11.8436 9.59905L11.1458 11.4734C11.4282 11.5785 11.6622 11.7278 11.8376 11.9074L13.2684 10.51ZM14.1521 11.8828C13.9566 11.3324 13.6503 10.8492 13.2202 10.4639L11.8857 11.9535C12.0395 12.0914 12.171 12.2807 12.2675 12.5522L14.1521 11.8828ZM14.4288 13.4878C14.4288 12.9405 14.341 12.3648 14.1412 11.8536L12.2784 12.5814C12.3706 12.8174 12.4288 13.1385 12.4288 13.4878H14.4288ZM14.0996 15.3219C14.3431 14.7236 14.4288 14.1028 14.4288 13.4878H12.4288C12.4288 13.919 12.3685 14.2697 12.2471 14.5681L14.0996 15.3219ZM13.1166 16.8054C13.6067 16.3593 13.8941 15.7859 14.0873 15.3507L12.2593 14.5392C12.0876 14.926 11.9371 15.1746 11.7704 15.3263L13.1166 16.8054ZM13.0494 16.8767L13.1589 16.7646L11.7281 15.3671L11.6186 15.4792L13.0494 16.8767ZM13.3172 15.9949L13.3155 15.9866L11.3525 16.3693L11.3541 16.3777L13.3172 15.9949ZM13.9427 17.4447C13.5078 16.9207 13.3559 16.1938 13.3172 15.9951L11.3541 16.3775C11.3956 16.5904 11.6157 17.7727 12.4039 18.7222L13.9427 17.4447ZM12.6187 17.2514L12.6186 17.2514L13.728 18.9155L13.7281 18.9155L12.6187 17.2514ZM13.1811 16.837C13.009 16.9838 12.8332 17.1048 12.6096 17.2575L13.7371 18.9093C13.9514 18.7631 14.2135 18.5852 14.4792 18.3585L13.1811 16.837ZM14.2088 15.4402C13.9157 16.0403 13.5921 16.5 13.1965 16.8241L14.4638 18.3713C15.1629 17.7987 15.6421 17.0628 16.0059 16.3179L14.2088 15.4402ZM14.5817 13.4878C14.5817 14.2862 14.4503 14.9456 14.2088 15.4402L16.0059 16.3179C16.4212 15.4674 16.5817 14.4829 16.5817 13.4878H14.5817ZM14.2525 11.6939C14.4575 12.2036 14.5817 12.8235 14.5817 13.4878H16.5817C16.5817 12.583 16.414 11.7083 16.1081 10.9477L14.2525 11.6939ZM13.3943 10.47C13.7444 10.7734 14.0543 11.201 14.2525 11.6939L16.1081 10.9477C15.7955 10.1703 15.3026 9.47708 14.7039 8.95842L13.3943 10.47ZM11.9899 9.6943C12.5593 9.87841 13.0243 10.1495 13.3943 10.47L14.7039 8.95842C14.1252 8.45703 13.4224 8.05554 12.6052 7.7913L11.9899 9.6943ZM9.81612 9.33181C10.558 9.33181 11.4734 9.52906 11.9928 9.69523L12.6023 7.79037C11.9539 7.58291 10.8258 7.33181 9.81612 7.33181V9.33181ZM6.80552 9.53566C7.25691 9.44322 8.45718 9.33181 9.81612 9.33181V7.33181C8.40174 7.33181 7.04764 7.44458 6.40429 7.57632L6.80552 9.53566ZM6.42245 9.55599H6.60491V7.55599H6.42245V9.55599ZM5.02832 9.74893C5.5288 9.62082 6.2117 9.55599 6.42245 9.55599V7.55599C6.04934 7.55599 5.19961 7.64061 4.53237 7.8114L5.02832 9.74893ZM4.99389 9.76392L5.10336 9.72656L4.45733 7.83377L4.34786 7.87114L4.99389 9.76392ZM5.67087 22.156V8.81753H3.67087V22.156H5.67087ZM6.78736 21.156H4.67087V23.156H6.78736V21.156ZM5.78736 18.4571V22.156H7.78736V18.4571H5.78736ZM9.01733 17.9167C8.07807 17.7743 7.39641 17.598 7.08098 17.5011L6.49374 19.413C6.90813 19.5403 7.68612 19.7377 8.71739 19.8941L9.01733 17.9167ZM7.30782 17.1842C7.35703 17.4406 7.52387 18.3119 7.9486 19.3002L9.78611 18.5106C9.44862 17.7253 9.31377 17.025 9.27196 16.8072L7.30782 17.1842ZM7.3016 17.152L7.308 17.1851L9.27178 16.8063L9.26539 16.7731L7.3016 17.152ZM6.86024 17.6737C7.16885 17.7514 7.59981 17.8603 8.11528 17.9483L8.45171 15.9768C8.02055 15.9032 7.65648 15.8118 7.34894 15.7343L6.86024 17.6737ZM6.56551 17.6014C6.64364 17.6192 6.73735 17.6427 6.86024 17.6737L7.34894 15.7343C7.23292 15.7051 7.11461 15.6752 7.00921 15.6512L6.56551 17.6014ZM5.78736 10.4615V16.6263H7.78736V10.4615H5.78736ZM6.71445 9.46313C6.70218 9.46564 6.6957 9.46696 6.69016 9.46804C6.68501 9.46904 6.68502 9.46897 6.6882 9.46846C6.69123 9.46797 6.70111 9.46642 6.71586 9.46493C6.7302 9.46348 6.75504 9.46148 6.78736 9.46148V11.4615C6.94742 11.4615 7.10464 11.4247 7.11571 11.4225L6.71445 9.46313ZM7.0428 9.42412C6.88274 9.42412 6.72552 9.46086 6.71445 9.46313L7.11571 11.4225C7.12798 11.42 7.13446 11.4186 7.14 11.4176C7.14515 11.4166 7.14513 11.4166 7.14196 11.4171C7.13893 11.4176 7.12905 11.4192 7.1143 11.4207C7.09996 11.4221 7.07511 11.4241 7.0428 11.4241V9.42412ZM20.5224 20.4111L20.4859 20.4485L21.9168 21.8458L21.9533 21.8085L20.5224 20.4111ZM21.2744 20.1098H21.2379V22.1098H21.2744V20.1098ZM20.2744 15.2439V21.1098H22.2744V15.2439H20.2744ZM17.2238 16.2439H21.2744V14.2439H17.2238V16.2439ZM17.3305 17.4157L18.1333 15.6597L16.3144 14.8281L15.5116 16.5841L17.3305 17.4157ZM19.3642 15.9626L16.4084 16L16.4337 17.9998L19.3895 17.9625L19.3642 15.9626ZM20.3768 19.8768V16.9626H18.3768V19.8768H20.3768ZM20.0192 20.6503L20.0922 20.5756L18.6614 19.1781L18.5884 19.2528L20.0192 20.6503ZM19.7624 20.841C19.7678 20.8377 19.7706 20.836 19.7729 20.8345C19.775 20.8333 19.7754 20.833 19.7748 20.8334C19.7733 20.8343 19.7677 20.8375 19.7595 20.8417L18.8481 19.0614C18.7848 19.0939 18.7338 19.1256 18.7156 19.1368L19.7624 20.841ZM19.7937 20.821L19.7937 20.821L18.6843 19.1569L18.6843 19.1569L19.7937 20.821ZM19.4079 21.01C19.5869 20.949 19.7024 20.8778 19.7624 20.841L18.7155 19.1369C18.6932 19.1506 18.7036 19.1437 18.7184 19.1361C18.7267 19.1319 18.7354 19.1278 18.7439 19.1242C18.7523 19.1207 18.7585 19.1184 18.7619 19.1172L19.4079 21.01ZM18.6723 21.2476C18.9086 21.1785 19.2222 21.088 19.4639 20.989L18.7059 19.1382C18.5827 19.1887 18.3854 19.2477 18.1108 19.328L18.6723 21.2476ZM17.7157 21.4292C18.0101 21.3915 18.3344 21.3465 18.6723 21.2476L18.1108 19.3281C17.9378 19.3786 17.7513 19.4083 17.4618 19.4454L17.7157 21.4292ZM11.6024 19.2376C13.1603 21.3489 15.8882 21.6733 17.7211 21.4285L17.4564 19.4461C15.9321 19.6496 14.1351 19.3015 13.2116 18.0501L11.6024 19.2376ZM10.9611 12.6754C9.99308 14.6576 10.2506 17.4518 11.6097 19.2474L13.2043 18.0403C12.301 16.8469 12.1206 14.8588 12.7582 13.553L10.9611 12.6754ZM11.5219 11.7731C11.2961 12.0505 11.0928 12.3564 10.9372 12.7281L12.7821 13.5003C12.8454 13.349 12.934 13.2065 13.0731 13.0356L11.5219 11.7731ZM10.5059 12.3518C10.7717 12.382 11.1978 12.4814 11.4221 12.8876L13.173 11.921C12.4484 10.6085 11.123 10.4091 10.732 10.3646L10.5059 12.3518ZM10.2688 15.4307C10.2688 14.2418 10.7008 12.982 11.4374 11.9327L9.80047 10.7836C8.85843 12.1256 8.26876 13.78 8.26876 15.4307H10.2688ZM13.5785 20.9802C11.5408 20.0771 10.2688 18.0765 10.2688 15.4307H8.26876C8.26876 18.7629 9.91599 21.5447 12.7682 22.8087L13.5785 20.9802ZM16.3116 21.4922C15.2807 21.4922 14.3343 21.3207 13.5841 20.9827L12.7626 22.8062C13.8369 23.2902 15.0799 23.4922 16.3116 23.4922V21.4922ZM18.9405 21.1243C18.0667 21.3894 17.1819 21.4922 16.3116 21.4922V23.4922C17.3388 23.4922 18.4244 23.3709 19.5212 23.0382L18.9405 21.1243ZM19.9479 20.7601C19.6654 20.8886 19.3125 21.0202 18.9619 21.1181L19.4998 23.0444C19.952 22.9181 20.402 22.7508 20.7763 22.5804L19.9479 20.7601ZM20.0432 20.7022C19.9883 20.7329 19.9288 20.7662 19.8676 20.801L20.8565 22.5395C20.9107 22.5086 20.9643 22.4786 21.02 22.4475L20.0432 20.7022ZM20.0451 20.7011L20.0429 20.7024L21.0202 22.4473L21.0224 22.4461L20.0451 20.7011ZM20.0633 20.6912L20.0632 20.6913L21.0044 22.456L21.0044 22.4559L20.0633 20.6912ZM20.5523 20.3864C20.4622 20.4633 20.3277 20.543 20.0455 20.7009L21.0222 22.4462C21.2566 22.3151 21.5806 22.1381 21.8505 21.9079L20.5523 20.3864ZM40.7273 28.8731L41.895 26.2204L40.0645 25.4146L38.8968 28.0674L40.7273 28.8731ZM43.0232 27.4703H39.812V29.4703H43.0232V27.4703ZM44.0232 30.5252V28.4703H42.0232V30.5252H44.0232ZM42.7495 31.6917C43.0833 31.6233 43.3425 31.4852 43.4789 31.4153L42.5675 29.6351C42.4121 29.7147 42.3793 29.726 42.3483 29.7323L42.7495 31.6917ZM42.1028 31.8339C42.2843 31.8036 42.5884 31.7552 42.8719 31.6584L42.2258 29.7656C42.1253 29.7999 41.9893 29.8251 41.773 29.8613L42.1028 31.8339ZM42.1339 31.8282L42.134 31.8282L41.7418 29.867L41.7417 29.867L42.1339 31.8282ZM42.0215 31.8476L42.1038 31.8337L41.7718 29.8615L41.6895 29.8753L42.0215 31.8476ZM41.1622 31.9362C41.4731 31.9362 41.8014 31.8852 42.0237 31.8472L41.6873 29.8757C41.4718 29.9125 41.2892 29.9362 41.1622 29.9362V31.9362ZM40.9063 31.9533C41.0214 31.9425 41.096 31.9362 41.1622 31.9362V29.9362C40.9873 29.9362 40.8208 29.9525 40.7192 29.9621L40.9063 31.9533ZM40.5783 31.9736C40.7011 31.9736 40.8338 31.9601 40.9063 31.9533L40.7192 29.9621C40.6728 29.9664 40.6407 29.9694 40.6128 29.9715C40.5847 29.9736 40.5758 29.9736 40.5783 29.9736V31.9736ZM38.7219 31.8009C39.33 31.9343 39.9563 31.9736 40.5783 31.9736V29.9736C40.0326 29.9736 39.5642 29.9381 39.1505 29.8473L38.7219 31.8009ZM37.0765 31.1138C37.5982 31.4878 38.1849 31.6741 38.7063 31.7973L39.1662 29.8509C38.7388 29.7499 38.4497 29.6374 38.2416 29.4882L37.0765 31.1138ZM35.4571 29.3032C35.8594 30.0812 36.4161 30.7111 37.1356 31.1531L38.1825 29.449C37.8073 29.2185 37.4882 28.8769 37.2336 28.3846L35.4571 29.3032ZM34.871 26.5648C34.871 27.5676 35.034 28.485 35.4571 29.3032L37.2336 28.3846C36.9999 27.9324 36.871 27.3553 36.871 26.5648H34.871ZM35.2604 24.2033C34.9948 24.9285 34.871 25.7202 34.871 26.5648H36.871C36.871 25.9149 36.9661 25.3614 37.1384 24.8911L35.2604 24.2033ZM36.4668 22.3954C35.9492 22.8772 35.5384 23.4911 35.268 24.1833L37.1308 24.9111C37.2983 24.4824 37.5443 24.1248 37.8295 23.8594L36.4668 22.3954ZM37.4223 21.7142C37.0124 21.9241 36.7115 22.1855 36.4991 22.3667L37.7972 23.8881C38.0227 23.6957 38.1597 23.5835 38.3337 23.4945L37.4223 21.7142ZM38.4693 21.2993C38.1044 21.3927 37.7228 21.5366 37.373 21.7412L38.383 23.4675C38.544 23.3732 38.7463 23.2929 38.9653 23.2368L38.4693 21.2993ZM39.5026 21.0894C39.1488 21.1346 38.773 21.2216 38.4693 21.2993L38.9653 23.2368C39.2454 23.1651 39.5265 23.1026 39.7565 23.0732L39.5026 21.0894ZM42.7781 21.3414C41.7066 21.046 40.5913 20.9607 39.5122 21.0882L39.7469 23.0744C40.5654 22.9777 41.4206 23.0418 42.2466 23.2695L42.7781 21.3414ZM44.7457 22.0653C44.1274 21.7884 43.4979 21.5461 42.7859 21.3436L42.2388 23.2673C42.8405 23.4384 43.3787 23.6445 43.9281 23.8906L44.7457 22.0653ZM44.8984 22.1273L44.7159 22.0526L43.958 23.9034L44.1404 23.9781L44.8984 22.1273ZM44.5173 19.8288L43.5685 22.7431L45.4703 23.3623L46.419 20.448L44.5173 19.8288ZM44.8665 20.9538L45.0124 21.0285L45.9239 19.2483L45.7779 19.1736L44.8665 20.9538ZM42.6687 20.2571C43.5104 20.4366 44.2231 20.6403 44.884 20.9625L45.7604 19.1648C44.8886 18.7398 43.9957 18.4952 43.0859 18.3011L42.6687 20.2571ZM40.2864 20.0549C41.0673 20.0549 41.8869 20.1245 42.7091 20.2648L43.0455 18.2933C42.1161 18.1347 41.1841 18.0549 40.2864 18.0549V20.0549ZM38.889 20.1578C39.3987 20.0882 39.8639 20.0549 40.2864 20.0549V18.0549C39.7601 18.0549 39.2036 18.0963 38.6185 18.1762L38.889 20.1578ZM37.5281 20.4798C37.9496 20.3257 38.4226 20.2261 38.8985 20.1565L38.6091 18.1775C38.0632 18.2574 37.4415 18.3819 36.8412 18.6014L37.5281 20.4798ZM36.2216 21.0966C36.6149 20.8487 37.0548 20.6529 37.5281 20.4798L36.8412 18.6014C36.2928 18.802 35.7109 19.0545 35.1554 19.4044L36.2216 21.0966ZM35.1199 22.0384C35.4638 21.6542 35.8314 21.3424 36.2216 21.0966L35.1554 19.4044C34.5969 19.7564 34.0887 20.1918 33.6298 20.7044L35.1199 22.0384ZM34.4049 22.9476C34.6641 22.6063 34.9018 22.294 35.1351 22.021L33.6146 20.7217C33.3371 21.0465 33.0639 21.4066 32.8123 21.7378L34.4049 22.9476ZM34.3979 22.9567L34.398 22.9566L32.8193 21.7288L32.8192 21.7289L34.3979 22.9567ZM34.4601 22.867L34.4602 22.8669L32.7569 21.8187L32.7568 21.8188L34.4601 22.867ZM33.9144 23.9153C34.066 23.5428 34.2493 23.2273 34.4713 22.8485L32.7457 21.8373C32.5298 22.2057 32.2752 22.6374 32.0619 23.1615L33.9144 23.9153ZM33.5623 25.1407C33.6771 24.6313 33.7672 24.2481 33.9022 23.9442L32.0742 23.1326C31.8442 23.6507 31.7154 24.2389 31.6112 24.7009L33.5623 25.1407ZM33.4408 26.49C33.4408 25.9681 33.4754 25.5264 33.5623 25.1407L31.6112 24.7009C31.4792 25.2867 31.4408 25.8911 31.4408 26.49H33.4408ZM33.8907 29.2472C33.6071 28.4729 33.4408 27.5447 33.4408 26.49H31.4408C31.4408 27.7518 31.6394 28.9159 32.0127 29.935L33.8907 29.2472ZM35.1806 31.2272C34.594 30.6582 34.1667 30.0009 33.8907 29.2472L32.0127 29.935C32.3935 30.9747 32.988 31.8867 33.7881 32.6628L35.1806 31.2272ZM36.2443 32.0407C35.8772 31.8383 35.5464 31.5675 35.1656 31.213L33.803 32.677C34.225 33.0698 34.6971 33.4715 35.2787 33.7921L36.2443 32.0407ZM37.5019 32.5918C37.0887 32.4709 36.6857 32.284 36.2443 32.0407L35.2787 33.7921C35.786 34.0718 36.3319 34.3333 36.9404 34.5113L37.5019 32.5918ZM38.8985 32.8984C38.435 32.8306 37.9696 32.7286 37.5019 32.5918L36.9404 34.5113C37.4945 34.6734 38.0508 34.7956 38.6091 34.8773L38.8985 32.8984ZM40.2864 32.9999C39.8593 32.9999 39.3603 32.9659 38.8985 32.8984L38.6091 34.8773C39.169 34.9592 39.7648 34.9999 40.2864 34.9999V32.9999ZM41.3691 32.9662C40.9785 32.9995 40.6524 32.9999 40.2864 32.9999V34.9999C40.6503 34.9999 41.054 35.0003 41.5391 34.9589L41.3691 32.9662ZM42.4574 32.8183C42.048 32.8834 41.7055 32.9375 41.3691 32.9662L41.5391 34.9589C41.9606 34.923 42.376 34.8564 42.7717 34.7934L42.4574 32.8183ZM42.4733 32.8159L42.4731 32.8159L42.756 34.7958L42.7561 34.7958L42.4733 32.8159ZM42.6476 32.7881L42.458 32.8182L42.7714 34.7935L42.961 34.7634L42.6476 32.7881ZM42.5618 32.8056L42.5618 32.8056L43.0468 34.7459L43.0469 34.7459L42.5618 32.8056ZM43.861 32.4343C43.4637 32.5908 43.0582 32.6882 42.5744 32.8025L43.0343 34.7489C43.4992 34.6391 44.0424 34.5124 44.5939 34.2952L43.861 32.4343ZM43.9276 32.4081L43.8613 32.4342L44.5936 34.2953L44.6598 34.2693L43.9276 32.4081ZM45.227 31.8088C44.8683 32.0348 44.4075 32.2194 43.9277 32.4081L44.6597 34.2693C45.1033 34.0949 45.7469 33.8451 46.2932 33.5009L45.227 31.8088ZM45.3774 31.7274L45.3044 31.7647L46.2158 33.545L46.2888 33.5076L45.3774 31.7274ZM44.8331 25.9296V32.6175H46.8331V25.9296H44.8331ZM40.9797 26.9296H45.8331V24.9296H40.9797V26.9296ZM39.9797 25.8175V25.9296H41.9797V25.8175H39.9797ZM99.781 18.9141C99.3626 18.7427 98.9541 18.6184 98.5397 18.5027L98.0018 20.429C98.3903 20.5375 98.7116 20.6373 99.023 20.7649L99.781 18.9141ZM102.395 21.4858C101.906 20.395 101.077 19.4354 99.7752 18.9117L99.0289 20.7672C99.7705 21.0656 100.255 21.6004 100.569 22.303L102.395 21.4858ZM103.066 24.6966C103.066 23.6148 102.865 22.4473 102.381 21.4556L100.583 22.3332C100.902 22.9855 101.066 23.8356 101.066 24.6966H103.066ZM100.774 29.7145C102.358 28.5092 103.066 26.5707 103.066 24.6966H101.066C101.066 26.1104 100.533 27.3851 99.563 28.1226L100.774 29.7145ZM98.5675 30.7808C99.3776 30.5626 100.115 30.2094 100.769 29.7183L99.5679 28.1189C99.1273 28.4497 98.6236 28.6944 98.0471 28.8497L98.5675 30.7808ZM96.0813 31.0768C96.9025 31.0768 97.7789 30.9521 98.518 30.7928L98.0966 28.8377C97.4491 28.9773 96.7198 29.0768 96.0813 29.0768V31.0768ZM95.7894 31.0768H96.0813V29.0768H95.7894V31.0768ZM95.315 31.0768H95.7894V29.0768H95.315V31.0768ZM94.9648 31.0517C95.0322 31.0594 95.1742 31.0768 95.315 31.0768V29.0768C95.3188 29.0768 95.3118 29.077 95.2873 29.0748C95.2624 29.0726 95.2344 29.0695 95.1909 29.0645L94.9648 31.0517ZM94.8406 31.0395C94.8369 31.0395 94.8439 31.0393 94.8684 31.0415C94.8932 31.0436 94.9213 31.0468 94.9648 31.0517L95.1909 29.0645C95.1234 29.0569 94.9814 29.0395 94.8406 29.0395V31.0395ZM94.7312 31.0395H94.8406V29.0395H94.7312V31.0395ZM95.7312 33.701V30.0395H93.7312V33.701H95.7312ZM91.4835 34.701H94.7312V32.701H91.4835V34.701ZM90.4835 19.5779V33.701H92.4835V19.5779H90.4835ZM91.3814 18.5718L91.2355 18.6092L91.7314 20.5467L91.8774 20.5093L91.3814 18.5718ZM93.4563 18.2848C92.7676 18.359 92.0712 18.4375 91.4409 18.5585L91.818 20.5226C92.3554 20.4195 92.9726 20.3485 93.6706 20.2733L93.4563 18.2848ZM95.8259 18.2043C95.1048 18.2043 94.2073 18.2429 93.5096 18.2805L93.6173 20.2776C94.3063 20.2405 95.1603 20.2043 95.8259 20.2043V18.2043ZM97.0862 18.2833C96.696 18.247 96.246 18.2043 95.8259 18.2043V20.2043C96.1355 20.2043 96.4883 20.2363 96.9008 20.2747L97.0862 18.2833ZM97.0767 18.2825L97.0765 18.2825L96.9104 20.2756L96.9106 20.2756L97.0767 18.2825ZM98.4538 18.4827C98.0457 18.4068 97.5679 18.3244 97.0786 18.2827L96.9086 20.2754C97.2951 20.3084 97.6931 20.3755 98.0878 20.449L98.4538 18.4827ZM96.5187 26.1421C96.2375 26.1944 95.862 26.1989 95.5172 26.1668L95.3318 28.1582C95.7898 28.2009 96.3631 28.2054 96.8847 28.1083L96.5187 26.1421ZM96.58 26.1287C96.5514 26.1347 96.5184 26.1416 96.4874 26.1484L96.916 28.102C96.9353 28.0977 96.9578 28.093 96.989 28.0865L96.58 26.1287ZM96.5836 26.128L96.5829 26.1282L96.9862 28.0871L96.987 28.0869L96.5836 26.128ZM97.7817 24.8087C97.7817 25.4538 97.5605 25.6969 97.3956 25.8223C97.1686 25.9949 96.8782 26.0665 96.5809 26.1286L96.9897 28.0863C97.2716 28.0275 97.9795 27.8907 98.6059 27.4145C99.2943 26.8912 99.7817 26.0454 99.7817 24.8087H97.7817ZM96.8757 23.3336C97.0545 23.3738 97.2465 23.425 97.41 23.5756C97.5403 23.6956 97.7817 23.9992 97.7817 24.8087H99.7817C99.7817 23.5467 99.3786 22.6697 98.765 22.1045C98.1846 21.5699 97.5333 21.4315 97.3145 21.3823L96.8757 23.3336ZM96.7821 23.3115C96.8171 23.3205 96.8552 23.329 96.8757 23.3336L97.3145 21.3823C97.301 21.3793 97.2922 21.3773 97.2849 21.3756C97.2775 21.3739 97.2761 21.3735 97.2781 21.374L96.7821 23.3115ZM96.0448 23.2307C96.3431 23.2307 96.5861 23.2614 96.7821 23.3115L97.2781 21.374C96.8902 21.2747 96.4765 21.2307 96.0448 21.2307V23.2307ZM95.6552 23.249C95.8055 23.2387 95.9282 23.2307 96.0448 23.2307V21.2307C95.8486 21.2307 95.6584 21.2441 95.5183 21.2537L95.6552 23.249ZM95.649 23.2494L95.6491 23.2494L95.5244 21.2533L95.5243 21.2533L95.649 23.2494ZM95.242 23.268C95.3849 23.268 95.5393 23.257 95.6551 23.249L95.5182 21.2537C95.3825 21.263 95.3024 21.268 95.242 21.268V23.268ZM94.7677 22.3054C94.8807 23.299 94.8806 23.299 94.8806 23.299C94.8806 23.299 94.8806 23.299 94.8806 23.299C94.8806 23.299 94.8805 23.299 94.8805 23.299C94.8805 23.299 94.8805 23.299 94.8805 23.299C94.8805 23.299 94.8806 23.299 94.8808 23.299C94.8812 23.2989 94.8818 23.2989 94.8828 23.2988C94.8846 23.2986 94.8876 23.2982 94.8916 23.2978C94.8996 23.2969 94.9116 23.2956 94.9266 23.294C94.9567 23.2908 94.9979 23.2866 95.0428 23.2824C95.0882 23.2782 95.1341 23.2743 95.1744 23.2716C95.1944 23.2702 95.2111 23.2692 95.2242 23.2687C95.2382 23.268 95.2435 23.268 95.242 23.268V21.268C95.1159 21.268 94.9529 21.2821 94.8575 21.291C94.802 21.2962 94.752 21.3013 94.7159 21.3051C94.6978 21.307 94.683 21.3087 94.6725 21.3098C94.6672 21.3104 94.663 21.3109 94.66 21.3112C94.6585 21.3114 94.6573 21.3115 94.6564 21.3116C94.6559 21.3117 94.6556 21.3117 94.6553 21.3117C94.6551 21.3118 94.655 21.3118 94.6549 21.3118C94.6548 21.3118 94.6548 21.3118 94.6548 21.3118C94.6547 21.3118 94.6547 21.3118 94.6547 21.3118C94.6547 21.3118 94.6546 21.3118 94.7677 22.3054ZM95.7677 27.1252V22.3054H93.7677V27.1252H95.7677ZM95.4245 26.1625C95.4282 26.1625 95.4008 26.1619 95.3281 26.1581C95.266 26.1548 95.1909 26.1504 95.1169 26.1458C95.0434 26.1412 94.973 26.1366 94.9208 26.1332C94.8947 26.1315 94.8733 26.13 94.8585 26.129C94.8511 26.1285 94.8453 26.1282 94.8415 26.1279C94.8395 26.1278 94.8381 26.1277 94.8371 26.1276C94.8366 26.1276 94.8363 26.1275 94.836 26.1275C94.8359 26.1275 94.8358 26.1275 94.8358 26.1275C94.8358 26.1275 94.8357 26.1275 94.8357 26.1275C94.8357 26.1275 94.8357 26.1275 94.8357 26.1275C94.8357 26.1275 94.8357 26.1275 94.7677 27.1252C94.6996 28.1229 94.6996 28.1229 94.6996 28.1229C94.6996 28.1229 94.6996 28.1229 94.6996 28.1229C94.6996 28.1229 94.6997 28.1229 94.6997 28.1229C94.6998 28.1229 94.6999 28.1229 94.7001 28.1229C94.7004 28.1229 94.7008 28.1229 94.7014 28.123C94.7025 28.1231 94.7041 28.1232 94.7062 28.1233C94.7104 28.1236 94.7165 28.124 94.7243 28.1245C94.7398 28.1256 94.762 28.1271 94.789 28.1288C94.8429 28.1324 94.9161 28.1372 94.9931 28.1419C95.1258 28.1502 95.3304 28.1625 95.4245 28.1625V26.1625ZM54.7433 13.3763C53.9883 13.6662 53.1251 13.8329 52.146 13.8329V15.8329C53.3562 15.8329 54.4637 15.626 55.4602 15.2434L54.7433 13.3763ZM56.5927 12.1C56.082 12.6536 55.4753 13.0633 54.7093 13.3901L55.4941 15.2296C56.4798 14.8092 57.3327 14.2474 58.0628 13.456L56.5927 12.1ZM57.7754 10.0802C57.4746 10.9015 57.0987 11.5813 56.6123 12.0793L58.0431 13.4767C58.7975 12.7043 59.2973 11.7402 59.6534 10.7681L57.7754 10.0802ZM58.1888 7.39778C58.1888 8.43449 58.0534 9.32105 57.7754 10.0802L59.6534 10.7681C60.0322 9.73385 60.1888 8.60283 60.1888 7.39778H58.1888ZM57.7754 4.75269C58.054 5.51344 58.1888 6.40058 58.1888 7.39778H60.1888C60.1888 6.22796 60.0316 5.09752 59.6534 4.06486L57.7754 4.75269ZM56.5927 2.73296C57.105 3.28833 57.4817 3.95081 57.7754 4.75269L59.6534 4.06487C59.2902 3.07334 58.7912 2.1666 58.0628 1.37692L56.5927 2.73296ZM54.7093 1.44287C55.455 1.76097 56.077 2.20551 56.6123 2.75366L58.0431 1.35622C57.3378 0.634039 56.5001 0.0324233 55.4941 -0.396722L54.7093 1.44287ZM52.146 1C53.1537 1 53.9952 1.13818 54.7093 1.44287L55.4941 -0.396721C54.4568 -0.839289 53.3277 -1 52.146 -1V1ZM49.6351 1.42775C50.3723 1.16522 51.2078 1 52.146 1V-1C50.9676 -1 49.9056 -0.791601 48.9642 -0.456335L49.6351 1.42775ZM47.7891 2.64156C48.2999 2.11851 48.9442 1.7054 49.6716 1.41398L48.9277 -0.442561C47.9765 -0.0614523 47.0881 0.496856 46.3583 1.24413L47.7891 2.64156ZM46.5939 4.62839C46.8796 3.81587 47.2818 3.16101 47.7891 2.64156L46.3583 1.24413C45.6249 1.99501 45.0783 2.90939 44.7071 3.965L46.5939 4.62839ZM46.1397 7.43515C46.1397 6.38321 46.3051 5.44977 46.5939 4.62839L44.7072 3.96499C44.3391 5.01174 44.1397 6.1706 44.1397 7.43515H46.1397ZM46.5939 10.2419C46.3051 9.42052 46.1397 8.48708 46.1397 7.43515H44.1397C44.1397 8.69969 44.3391 9.85855 44.7072 10.9053L46.5939 10.2419ZM47.7891 12.2287C47.2818 11.7093 46.8796 11.0544 46.5939 10.2419L44.7071 10.9053C45.0783 11.9609 45.6249 12.8753 46.3583 13.6262L47.7891 12.2287ZM49.6581 13.451C48.9163 13.1662 48.3084 12.7604 47.7891 12.2287L46.3583 13.6262C47.0797 14.3648 47.9314 14.9304 48.9412 15.3181L49.6581 13.451ZM52.146 13.8329C51.2422 13.8329 50.3579 13.6669 49.5972 13.4299L49.0021 15.3393C49.92 15.6253 51.0062 15.8329 52.146 15.8329V13.8329ZM47.8744 5.03327C47.6461 5.73453 47.5698 6.52459 47.5698 7.36042H49.5698C49.5698 6.62701 49.6395 6.07203 49.7761 5.65241L47.8744 5.03327ZM48.804 3.30022C48.3535 3.81268 48.0805 4.40005 47.8744 5.03327L49.7761 5.65241C49.9349 5.16475 50.0998 4.85544 50.3062 4.62064L48.804 3.30022ZM50.3633 2.22942C49.734 2.44421 49.2279 2.81799 48.804 3.30023L50.3062 4.62064C50.5391 4.35562 50.7629 4.20632 51.0093 4.12222L50.3633 2.22942ZM52.1825 1.91427C51.5529 1.91427 50.8965 1.99893 50.2939 2.25602L51.0787 4.09561C51.3519 3.97908 51.7173 3.91427 52.1825 3.91427V1.91427ZM54.2438 2.3604C53.6291 2.04574 52.9156 1.91427 52.1825 1.91427V3.91427C52.69 3.91427 53.0712 4.00697 53.3324 4.14067L54.2438 2.3604ZM55.7346 3.60551C55.3232 3.0264 54.778 2.63388 54.2438 2.3604L53.3324 4.14067C53.6739 4.31554 53.9315 4.52082 54.104 4.76369L55.7346 3.60551ZM56.5438 5.35235C56.3738 4.69938 56.1054 4.0784 55.7073 3.56891L54.1313 4.80029C54.3171 5.03804 54.4865 5.38851 54.6084 5.85642L56.5438 5.35235ZM56.7951 7.39778C56.7951 6.6857 56.7132 6.00259 56.5438 5.35234L54.6084 5.85642C54.731 6.32706 54.7951 6.83954 54.7951 7.39778H56.7951ZM56.5438 9.44323C56.7132 8.79299 56.7951 8.10986 56.7951 7.39778H54.7951C54.7951 7.95602 54.731 8.46852 54.6084 8.93915L56.5438 9.44323ZM55.7346 11.1901C56.095 10.6826 56.3666 10.1239 56.5438 9.44322L54.6084 8.93916C54.4938 9.37939 54.3274 9.71733 54.104 10.0319L55.7346 11.1901ZM54.2153 12.4492C54.865 12.1421 55.3457 11.6895 55.7073 11.2267L54.1313 9.99527C53.9091 10.2797 53.6599 10.4996 53.3608 10.6409L54.2153 12.4492ZM52.1825 12.8813C52.9156 12.8813 53.6291 12.7498 54.2438 12.4352L53.3324 10.6549C53.0712 10.7886 52.69 10.8813 52.1825 10.8813V12.8813ZM50.2939 12.5396C50.8966 12.7966 51.5529 12.8813 52.1825 12.8813V10.8813C51.7173 10.8813 51.3519 10.8165 51.0787 10.7L50.2939 12.5396ZM48.8397 11.5339C49.2504 11.9544 49.7227 12.2958 50.2939 12.5396L51.0787 10.7C50.7742 10.57 50.5166 10.3884 50.2705 10.1364L48.8397 11.5339ZM47.8744 9.76229C48.0805 10.3955 48.3535 10.9829 48.804 11.4954L50.3062 10.1749C50.0998 9.94014 49.9349 9.63082 49.7761 9.14315L47.8744 9.76229ZM47.5698 7.36042C47.5698 8.20705 47.6485 8.97804 47.8641 9.72881L49.7864 9.17663C49.6371 8.65708 49.5698 8.08301 49.5698 7.36042H47.5698ZM68.6398 10.545H64.4799V12.545H68.6398V10.545ZM68.2822 14.9269L69.5594 11.9379L67.7203 11.1521L66.4431 14.1411L68.2822 14.9269ZM61.2321 15.534H67.3627V13.534H61.2321V15.534ZM60.2321 0.149414V14.534H62.2321V0.149414H60.2321ZM64.4799 -0.850586H61.2321V1.14941H64.4799V-0.850586ZM65.4799 11.545V0.149414H63.4799V11.545H65.4799ZM72.2064 11.1949L70.9657 14.1465L72.8095 14.9215L74.0502 11.9699L72.2064 11.1949ZM78.529 10.5824H73.1283V12.5824H78.529V10.5824ZM80.6916 14.1465L79.4509 11.1949L77.6072 11.9699L78.8478 14.9215L80.6916 14.1465ZM83.2364 13.534H79.7697V15.534H83.2364V13.534ZM76.1859 0.541479L82.3164 14.9261L84.1563 14.1419L78.0258 -0.242652L76.1859 0.541479ZM74.7339 1.14941H77.1059V-0.850586H74.7339V1.14941ZM69.5234 14.9261L75.6539 0.541479L73.814 -0.242651L67.6835 14.1419L69.5234 14.9261ZM71.8876 13.534H68.6034V15.534H71.8876V13.534ZM77.2515 5.9226L76.7771 4.50282L74.8802 5.13664L75.3546 6.55641L77.2515 5.9226ZM78.3222 8.51077L77.2274 5.85803L75.3787 6.62098L76.4734 9.27372L78.3222 8.51077ZM74.2596 9.89225H77.3978V7.89225H74.2596V9.89225ZM74.4318 5.89075L73.3371 8.50613L75.182 9.27836L76.2767 6.66298L74.4318 5.89075ZM74.8778 4.51017L74.4034 5.9673L76.3052 6.58643L76.7795 5.1293L74.8778 4.51017ZM88.0167 -0.850586H84.7689V1.14941H88.0167V-0.850586ZM89.0167 14.534V0.149414H87.0167V14.534H89.0167ZM84.7689 15.534H88.0167V13.534H84.7689V15.534ZM83.7689 0.149414V14.534H85.7689V0.149414H83.7689ZM96.1267 8.12351L94.5575 7.93669L94.3211 9.92267L95.8902 10.1095L96.1267 8.12351ZM100.792 13.9423L96.8145 8.52468L95.2024 9.70831L99.1799 15.1259L100.792 13.9423ZM104 13.5341H99.986V15.5341H104V13.5341ZM98.8331 9.54537L103.212 15.1498L104.788 13.9184L100.409 8.31399L98.8331 9.54537ZM98.4313 9.14269L98.9057 9.6284L100.336 8.23097L99.8621 7.74526L98.4313 9.14269ZM98.8983 7.46856C98.8631 7.48187 98.8256 7.49607 98.7882 7.51043L99.5051 9.37751C99.5371 9.36523 99.5701 9.35277 99.606 9.33919L98.8983 7.46856ZM99.4321 7.22581C99.3364 7.29584 99.1893 7.35848 98.8983 7.46858L99.606 9.33917C99.842 9.24988 100.258 9.09934 100.613 8.84015L99.4321 7.22581ZM100.253 6.51806C100.009 6.79824 99.7564 7.0228 99.499 7.18092L100.546 8.88504C101.018 8.59482 101.422 8.22156 101.763 7.82921L100.253 6.51806ZM100.707 5.65287C100.596 6.02183 100.44 6.30256 100.253 6.51806L101.763 7.82921C102.16 7.37219 102.441 6.83095 102.622 6.22848L100.707 5.65287ZM100.92 4.33409C100.92 4.80501 100.835 5.22742 100.707 5.65289L102.622 6.22847C102.786 5.68251 102.92 5.05878 102.92 4.33409H100.92ZM100.583 2.8221C100.796 3.18668 100.92 3.67043 100.92 4.33409H102.92C102.92 3.42853 102.752 2.56721 102.308 1.81091L100.583 2.8221ZM99.645 1.82352C100.027 2.05834 100.321 2.37518 100.583 2.82209L102.308 1.81092C101.913 1.13695 101.404 0.557109 100.692 0.119401L99.645 1.82352ZM98.9331 1.46951C99.1715 1.55085 99.3912 1.6613 99.6294 1.81376L100.707 0.129167C100.362 -0.091999 99.9976 -0.28046 99.5791 -0.423292L98.9331 1.46951ZM97.9973 1.20388C98.3027 1.26643 98.6225 1.36348 98.9331 1.46951L99.5791 -0.423292C99.233 -0.54144 98.8229 -0.668558 98.3985 -0.755459L97.9973 1.20388ZM96.974 1.07045C97.3765 1.10791 97.6919 1.14135 97.9973 1.20388L98.3985 -0.755459C97.9741 -0.842376 97.5597 -0.883682 97.1594 -0.920943L96.974 1.07045ZM95.9722 1.0374C96.3454 1.0374 96.6592 1.03826 96.9648 1.06955L97.1685 -0.920047C96.7445 -0.963461 96.3287 -0.962601 95.9722 -0.962601L95.9722 1.0374ZM95.9719 1.0374H95.9722V-0.962601H95.9719V1.0374ZM95.9717 1.0374H95.9719V-0.962601H95.9717V1.0374ZM95.0064 1.07045C95.3559 1.03792 95.678 1.0374 95.9717 1.0374L95.9717 -0.962601C95.6816 -0.962601 95.2741 -0.963117 94.821 -0.920943L95.0064 1.07045ZM93.8597 1.13715C94.2667 1.10219 94.5937 1.07475 94.9137 1.07475V-0.925248C94.4931 -0.925248 94.0795 -0.889086 93.6886 -0.855519L93.8597 1.13715ZM93.7584 1.14583L93.8595 1.13716L93.6888 -0.855535L93.5876 -0.846867L93.7584 1.14583ZM92.525 1.25726C92.9267 1.21986 93.3245 1.18285 93.758 1.14586L93.588 -0.846898C93.1457 -0.809161 92.7406 -0.771458 92.3396 -0.734131L92.525 1.25726ZM91.5594 1.3861C91.8145 1.32807 92.1161 1.29532 92.525 1.25726L92.3396 -0.734131C91.9457 -0.697462 91.5175 -0.655473 91.1157 -0.564054L91.5594 1.3861ZM91.4395 1.41716L91.5855 1.37981L91.0896 -0.557757L90.9437 -0.520403L91.4395 1.41716ZM92.1916 14.5341V0.448378H90.1916V14.5341H92.1916ZM94.4393 13.5341H91.1916V15.5341H94.4393V13.5341ZM93.4393 8.92968V14.5341H95.4393V8.92968H93.4393ZM96.9861 7.72009C97.5106 7.66639 97.9387 7.50179 98.3015 7.28951L97.2915 5.56326C97.1435 5.64988 96.9876 5.70947 96.7824 5.73049L96.9861 7.72009ZM95.8261 7.80001C96.1413 7.80001 96.6055 7.80312 97.0848 7.70496L96.6836 5.74562C96.4332 5.7969 96.1677 5.80001 95.8261 5.80001V7.80001ZM95.826 7.80001H95.8261V5.80001H95.826V7.80001ZM94.4393 7.80001H95.826V5.80001H94.4393V7.80001ZM93.4393 3.3253V6.80001H95.4393V3.3253H93.4393ZM94.6218 2.3253H94.4393V4.3253H94.6218V2.3253ZM94.8117 2.31917C94.8161 2.31804 94.8082 2.32066 94.7768 2.32267C94.7411 2.32496 94.7 2.3253 94.6218 2.3253V4.3253C94.7488 4.3253 95.0202 4.33026 95.3076 4.2567L94.8117 2.31917ZM95.5705 2.28793H95.0597V4.28793H95.5705V2.28793ZM97.2349 2.37691C96.6965 2.28504 96.0934 2.28793 95.5705 2.28793V4.28793C96.1424 4.28793 96.5611 4.29084 96.8985 4.34841L97.2349 2.37691ZM98.4333 2.83563C98.0794 2.59407 97.6368 2.42747 97.1936 2.37075L96.9397 4.35457C97.0804 4.37258 97.2217 4.43014 97.3057 4.48749L98.4333 2.83563ZM99.2536 3.73465C99.028 3.33055 98.7731 3.06763 98.4333 2.83563L97.3057 4.48749C97.4037 4.55439 97.4407 4.59037 97.5071 4.70934L99.2536 3.73465ZM99.5628 4.93188C99.5628 4.51725 99.436 4.10474 99.2789 3.78318L97.4818 4.66081C97.5437 4.7876 97.5628 4.89817 97.5628 4.93188H99.5628ZM99.3028 6.28943C99.4634 5.90588 99.5628 5.47575 99.5628 4.93188H97.5628C97.5628 5.20999 97.5163 5.37767 97.4579 5.51719L99.3028 6.28943ZM98.3603 7.25232C98.6748 7.03765 98.9244 6.77747 99.0958 6.60203L97.665 5.2046C97.4714 5.40278 97.3561 5.51622 97.2327 5.60045L98.3603 7.25232ZM56.7737 28.5445C56.8057 28.5322 56.8385 28.5198 56.8744 28.5062L56.1667 26.6356C56.1317 26.6488 56.0942 26.663 56.0569 26.6773L56.7737 28.5445ZM57.6304 27.4622L57.156 26.9391L55.6746 28.2827L56.1489 28.8058L57.6304 27.4622ZM62.0566 33.1227L57.6777 27.5183L56.1017 28.7497L60.4806 34.354L62.0566 33.1227ZM57.2546 34.7383H61.2686V32.7383H57.2546V34.7383ZM52.471 28.9126L56.4485 34.3302L58.0607 33.1465L54.0831 27.729L52.471 28.9126ZM51.5897 29.1269L53.1588 29.3138L53.3953 27.3278L51.8262 27.141L51.5897 29.1269ZM52.7079 33.7383V28.134H50.7079V33.7383H52.7079ZM48.4602 34.7383H51.7079V32.7383H48.4602V34.7383ZM47.4602 19.6153V33.7383H49.4602V19.6153H47.4602ZM48.3582 18.6092L48.2122 18.6465L48.7082 20.5841L48.8542 20.5467L48.3582 18.6092ZM49.6082 18.4328C49.2143 18.4695 48.7861 18.5114 48.3843 18.6029L48.828 20.553C49.0831 20.495 49.3847 20.4622 49.7936 20.4242L49.6082 18.4328ZM49.6104 18.4326L49.6082 18.4328L49.7936 20.4242L49.7958 20.424L49.6104 18.4326ZM50.8566 18.32C50.4151 18.3577 50.0107 18.3953 49.6104 18.4326L49.7958 20.424C50.1968 20.3867 50.5939 20.3497 51.0266 20.3128L50.8566 18.32ZM50.957 18.3114L50.8562 18.3201L51.027 20.3127L51.1278 20.3041L50.957 18.3114ZM50.9595 18.3112L50.9594 18.3112L51.1255 20.3043L51.1255 20.3043L50.9595 18.3112ZM52.1823 18.2417C51.7616 18.2417 51.3479 18.2778 50.9569 18.3114L51.1281 20.3041C51.5352 20.2691 51.8622 20.2417 52.1823 20.2417V18.2417ZM53.2406 18.2043C52.9504 18.2043 52.5428 18.2038 52.0896 18.246L52.275 20.2374C52.6246 20.2048 52.9468 20.2043 53.2406 20.2043V18.2043ZM54.4372 18.2469C54.013 18.2035 53.5971 18.2043 53.2406 18.2043V20.2043C53.6138 20.2043 53.9277 20.2052 54.2334 20.2365L54.4372 18.2469ZM55.6671 18.4115C55.2427 18.3245 54.8283 18.2832 54.428 18.246L54.2426 20.2374C54.6451 20.2748 54.9605 20.3083 55.2659 20.3708L55.6671 18.4115ZM56.8478 18.7436C56.5016 18.6255 56.0915 18.4984 55.6671 18.4115L55.2659 20.3708C55.5714 20.4333 55.8911 20.5304 56.2018 20.6364L56.8478 18.7436ZM57.976 19.2961C57.6304 19.0749 57.2663 18.8865 56.8478 18.7436L56.2018 20.6364C56.4401 20.7178 56.6598 20.8282 56.898 20.9807L57.976 19.2961ZM59.577 20.9778C59.1821 20.3039 58.673 19.724 57.9605 19.2863L56.9136 20.9904C57.2958 21.2253 57.5896 21.5421 57.8515 21.989L59.577 20.9778ZM60.1886 23.501C60.1886 22.5954 60.0202 21.7341 59.577 20.9778L57.8515 21.989C58.0651 22.3536 58.1886 22.8374 58.1886 23.501H60.1886ZM59.8909 25.3954C60.0549 24.8494 60.1886 24.2257 60.1886 23.501H58.1886C58.1886 23.9719 58.1034 24.3943 57.9755 24.8198L59.8909 25.3954ZM59.0315 26.9961C59.4283 26.5391 59.7098 25.9978 59.8909 25.3954L57.9755 24.8198C57.8646 25.1888 57.7083 25.4695 57.5212 25.685L59.0315 26.9961ZM57.8145 28.052C58.2869 27.7617 58.6908 27.3885 59.0315 26.9961L57.5212 25.685C57.278 25.9651 57.0251 26.1897 56.7676 26.3478L57.8145 28.052ZM56.8746 28.5061C57.1106 28.4168 57.527 28.2663 57.8814 28.0071L56.7008 26.3927C56.605 26.4628 56.4579 26.5254 56.1669 26.6355L56.8746 28.5061ZM56.892 28.4993L56.8921 28.4993L56.1494 26.6423L56.1492 26.6424L56.892 28.4993ZM54.7584 23.7999C54.7584 24.078 54.7119 24.2457 54.6535 24.3852L56.4984 25.1575C56.659 24.7739 56.7584 24.3438 56.7584 23.7999H54.7584ZM54.681 23.4913C54.7387 23.6389 54.7584 23.7249 54.7584 23.7999H56.7584C56.7584 23.3518 56.6322 22.9895 56.5439 22.7635L54.681 23.4913ZM54.5378 23.3929C54.6359 23.4598 54.6729 23.4958 54.7393 23.6147L56.4857 22.64C56.2602 22.2359 56.0053 21.973 55.6654 21.741L54.5378 23.3929ZM54.1718 23.26C54.3126 23.278 54.4538 23.3355 54.5378 23.3929L55.6654 21.741C55.3115 21.4995 54.8689 21.3329 54.4258 21.2761L54.1718 23.26ZM52.8027 23.1933C53.3746 23.1933 53.7932 23.1962 54.1306 23.2538L54.467 21.2823C53.9286 21.1904 53.3255 21.1933 52.8027 21.1933V23.1933ZM52.2918 23.1933H52.8027V21.1933H52.2918V23.1933ZM51.8539 23.2307C51.981 23.2307 52.2524 23.2356 52.5398 23.1621L52.0438 21.2246C52.0482 21.2234 52.0403 21.2261 52.009 21.2281C51.9732 21.2303 51.9322 21.2307 51.8539 21.2307V23.2307ZM51.6714 23.2307H51.8539V21.2307H51.6714V23.2307ZM52.6714 25.7054V22.2307H50.6714V25.7054H52.6714ZM53.0581 24.7054H51.6714V26.7054H53.0581V24.7054ZM53.0582 24.7054H53.0581V26.7054H53.0582V24.7054ZM53.9157 24.651C53.6653 24.7023 53.3998 24.7054 53.0582 24.7054V26.7054C53.3734 26.7054 53.8376 26.7085 54.317 26.6103L53.9157 24.651ZM54.5236 24.4686C54.3756 24.5553 54.2198 24.6149 54.0145 24.6359L54.2182 26.6255C54.7427 26.5718 55.1708 26.4072 55.5336 26.1949L54.5236 24.4686ZM54.738 24.2257C54.6634 24.3403 54.5738 24.4315 54.4649 24.5058L55.5924 26.1577C55.9214 25.9331 56.1967 25.6507 56.414 25.317L54.738 24.2257ZM70.4369 20.5726C71.1826 20.8907 71.8045 21.3352 72.3399 21.8834L73.7707 20.4859C73.0653 19.7637 72.2276 19.1621 71.2217 18.733L70.4369 20.5726ZM67.8735 20.1297C68.8813 20.1297 69.7227 20.2679 70.4369 20.5726L71.2217 18.733C70.1843 18.2904 69.0552 18.1297 67.8735 18.1297V20.1297ZM65.3627 20.5575C66.0999 20.2949 66.9354 20.1297 67.8735 20.1297V18.1297C66.6952 18.1297 65.6331 18.3381 64.6917 18.6734L65.3627 20.5575ZM63.5167 21.7713C64.0275 21.2482 64.6718 20.8351 65.3991 20.5437L64.6553 18.6871C63.7041 19.0683 62.8157 19.6266 62.0859 20.3738L63.5167 21.7713ZM62.3215 23.7581C62.6072 22.9456 63.0093 22.2907 63.5166 21.7713L62.0859 20.3738C61.3525 21.1247 60.8059 22.0391 60.4347 23.0947L62.3215 23.7581ZM61.8672 26.5649C61.8672 25.5129 62.0327 24.5795 62.3215 23.7581L60.4347 23.0947C60.0667 24.1414 59.8672 25.3003 59.8672 26.5649H61.8672ZM62.3215 29.3716C62.0327 28.5502 61.8672 27.6168 61.8672 26.5649H59.8672C59.8672 27.8294 60.0667 28.9883 60.4347 30.035L62.3215 29.3716ZM63.5167 31.3584C63.0093 30.839 62.6072 30.1841 62.3215 29.3716L60.4347 30.035C60.8059 31.0906 61.3525 32.005 62.0858 32.7559L63.5167 31.3584ZM65.3857 32.5807C64.6439 32.2959 64.0359 31.8901 63.5166 31.3584L62.0859 32.7559C62.8073 33.4945 63.659 34.0601 64.6688 34.4478L65.3857 32.5807ZM67.8735 33C66.9411 33 66.0893 32.8625 65.3991 32.586L64.6553 34.4425C65.6437 34.8385 66.7624 35 67.8735 35V33ZM70.4709 32.5434C69.7158 32.8333 68.8527 33 67.8735 33V35C69.0838 35 70.1912 34.7931 71.1877 34.4105L70.4709 32.5434ZM72.3202 31.267C71.8096 31.8206 71.2029 32.2304 70.4369 32.5571L71.2217 34.3967C72.2073 33.9762 73.0603 33.4145 73.7903 32.6231L72.3202 31.267ZM73.5029 29.2473C73.2092 30.0492 72.8325 30.7117 72.3202 31.267L73.7903 32.6231C74.5187 31.8334 75.0178 30.9266 75.3809 29.9351L73.5029 29.2473ZM73.9163 26.5649C73.9163 27.6016 73.781 28.4881 73.5029 29.2473L75.3809 29.9351C75.7597 28.9009 75.9163 27.7699 75.9163 26.5649H73.9163ZM73.5029 23.9198C73.7816 24.6805 73.9163 25.5676 73.9163 26.5649H75.9163C75.9163 25.395 75.7592 24.2646 75.3809 23.2319L73.5029 23.9198ZM72.3399 21.8834C72.8241 22.3792 73.199 23.0557 73.4985 23.9075L75.3853 23.2441C75.028 22.2279 74.5271 21.2604 73.7707 20.4859L72.3399 21.8834ZM72.2349 28.5729C72.4043 27.9227 72.4861 27.2396 72.4861 26.5275H70.4861C70.4861 27.0857 70.4221 27.5982 70.2995 28.0688L72.2349 28.5729ZM71.4256 30.3198C71.7861 29.8123 72.0576 29.2536 72.2349 28.5729L70.2995 28.0688C70.1848 28.5091 70.0185 28.847 69.7951 29.1616L71.4256 30.3198ZM69.9064 31.5789C70.5561 31.2718 71.0367 30.8192 71.3983 30.3564L69.8224 29.125C69.6001 29.4094 69.3509 29.6293 69.0519 29.7706L69.9064 31.5789ZM67.8735 32.011C68.6067 32.011 69.3202 31.8795 69.9348 31.5649L69.0234 29.7846C68.7623 29.9183 68.3811 30.011 67.8735 30.011V32.011ZM65.985 31.6692C66.5876 31.9263 67.244 32.011 67.8735 32.011V30.011C67.4083 30.011 67.0429 29.9462 66.7698 29.8297L65.985 31.6692ZM64.5307 30.6635C64.9415 31.0841 65.4137 31.4255 65.985 31.6692L66.7698 29.8297C66.4652 29.6997 66.2077 29.5181 65.9616 29.2661L64.5307 30.6635ZM63.5654 28.892C63.7716 29.5252 64.0446 30.1126 64.4951 30.625L65.9972 29.3046C65.7908 29.0698 65.626 28.7605 65.4672 28.2729L63.5654 28.892ZM63.2609 26.5649C63.2609 27.4007 63.3371 28.1907 63.5654 28.892L65.4672 28.2729C65.3306 27.8532 65.2609 27.2983 65.2609 26.5649H63.2609ZM63.5654 24.2377C63.3371 24.939 63.2609 25.729 63.2609 26.5649H65.2609C65.2609 25.8314 65.3306 25.2765 65.4672 24.8568L63.5654 24.2377ZM64.4951 22.5046C64.0446 23.0171 63.7716 23.6045 63.5654 24.2377L65.4672 24.8568C65.626 24.3692 65.7908 24.0599 65.9972 23.8251L64.4951 22.5046ZM66.0544 21.4338C65.4589 21.6371 64.8856 22.002 64.4582 22.5492L66.0341 23.7805C66.1905 23.5804 66.4201 23.4223 66.7004 23.3266L66.0544 21.4338ZM67.8735 21.1187C67.244 21.1187 66.5876 21.2034 65.985 21.4604L66.7698 23.3C67.0429 23.1835 67.4084 23.1187 67.8735 23.1187V21.1187ZM69.9348 21.5648C69.3202 21.2502 68.6067 21.1187 67.8735 21.1187V23.1187C68.3811 23.1187 68.7623 23.2114 69.0234 23.3451L69.9348 21.5648ZM71.4256 22.8099C71.0143 22.2308 70.469 21.8383 69.9348 21.5648L69.0234 23.3451C69.365 23.52 69.6226 23.7253 69.7951 23.9681L71.4256 22.8099ZM72.2349 24.5568C72.0648 23.9038 71.7964 23.2828 71.3983 22.7733L69.8224 24.0047C70.0081 24.2425 70.1776 24.5929 70.2995 25.0609L72.2349 24.5568ZM72.4861 26.5275C72.4861 25.8246 72.4063 25.1248 72.2249 24.521L70.3095 25.0966C70.42 25.4642 70.4861 25.9601 70.4861 26.5275H72.4861ZM84.572 28.3208C84.572 28.7057 84.5142 29.012 84.4386 29.2442L86.3404 29.8633C86.4837 29.423 86.572 28.9072 86.572 28.3208H84.572ZM84.572 19.3911V28.3208H86.572V19.3911H84.572ZM88.6737 18.3911H85.572V20.3911H88.6737V18.3911ZM89.6737 28.4702V19.3911H87.6737V28.4702H89.6737ZM89.1531 31.297C89.5133 30.4672 89.6737 29.5021 89.6737 28.4702H87.6737C87.6737 29.3065 87.5422 29.9853 87.3185 30.5006L89.1531 31.297ZM87.7277 33.3691C88.3606 32.8137 88.8617 32.1129 89.1767 31.2374L87.2949 30.5602C87.099 31.1044 86.7974 31.5246 86.4085 31.8659L87.7277 33.3691ZM85.5877 34.5778C86.4099 34.3119 87.1137 33.9079 87.7277 33.3691L86.4085 31.8659C86.0007 32.2237 85.5368 32.4923 84.9724 32.6748L85.5877 34.5778ZM83.0906 34.9252C83.9555 34.9252 84.7731 34.7985 85.5402 34.5918L85.0199 32.6607C84.4003 32.8276 83.7582 32.9252 83.0906 32.9252V34.9252ZM80.3155 34.5822C81.1823 34.8484 82.1347 34.9252 83.0906 34.9252V32.9252C82.2218 32.9252 81.4957 32.8525 80.9028 32.6703L80.3155 34.5822ZM78.0848 33.434C78.7002 33.929 79.4386 34.3257 80.3284 34.586L80.8899 32.6665C80.2471 32.4784 79.7448 32.2026 79.3384 31.8757L78.0848 33.434ZM76.6161 31.4214C76.9296 32.2009 77.4288 32.9062 78.0848 33.434L79.3384 31.8757C78.9727 31.5814 78.6691 31.1659 78.4717 30.6751L76.6161 31.4214ZM76.1425 28.8438C76.1425 29.7828 76.3091 30.6579 76.6161 31.4214L78.4717 30.6751C78.2678 30.1682 78.1425 29.5488 78.1425 28.8438H76.1425ZM76.1425 19.3911V28.8438H78.1425V19.3911H76.1425ZM80.3902 18.3911H77.1425V20.3911H80.3902V18.3911ZM81.3902 28.3208V19.3911H79.3902V28.3208H81.3902ZM81.726 29.6396C81.5861 29.4964 81.3902 29.097 81.3902 28.3208H79.3902C79.3902 29.3379 79.6322 30.3583 80.2951 31.0371L81.726 29.6396ZM83.0541 29.9735C82.223 29.9735 81.8546 29.7714 81.7259 29.6396L80.2952 31.0371C80.9693 31.7273 81.9876 31.9735 83.0541 31.9735V29.9735ZM83.8258 29.8777C83.6436 29.9399 83.4014 29.9735 83.0541 29.9735V31.9735C83.5095 31.9735 83.9972 31.9324 84.4718 31.7705L83.8258 29.8777ZM84.1997 29.677C84.1035 29.7755 84.0078 29.8279 83.9008 29.8553L84.3968 31.7928C84.8736 31.6708 85.2888 31.4243 85.6305 31.0744L84.1997 29.677ZM84.4386 29.2442C84.3659 29.4675 84.2894 29.5852 84.1997 29.677L85.6305 31.0744C85.9787 30.7179 86.1941 30.3125 86.3404 29.8633L84.4386 29.2442Z" fill="black" mask="url(#path-1-inside-1_1526_2774)"/>
</g>
</g>
<defs>
<filter id="filter0_d_1526_2774" x="-4" y="0" width="112" height="42" filterUnits="userSpaceOnUse" color-interpolation-filters="sRGB">
<feFlood flood-opacity="0" result="BackgroundImageFix"/>
<feColorMatrix in="SourceAlpha" type="matrix" values="0 0 0 0 0 0 0 0 0 0 0 0 0 0 0 0 0 0 127 0" result="hardAlpha"/>
<feOffset dy="4"/>
<feGaussianBlur stdDeviation="2"/>
<feComposite in2="hardAlpha" operator="out"/>
<feColorMatrix type="matrix" values="0 0 0 0 0 0 0 0 0 0 0 0 0 0 0 0 0 0 0.25 0"/>
<feBlend mode="normal" in2="BackgroundImageFix" result="effect1_dropShadow_1526_2774"/>
<feBlend mode="normal" in="SourceGraphic" in2="effect1_dropShadow_1526_2774" result="shape"/>
</filter>
<clipPath id="clip0_1526_2774">
<rect width="104" height="34" fill="white"/>
</clipPath>
</defs>
</svg>
